<svg xmlns="http://www.w3.org/2000/svg" width="160.627" height="96.147" viewBox="0 0 160.627 96.147">
  <g id="BWC-white_logo" data-name="BWC-white logo" transform="translate(-123 -174.61)">
    <path id="Path_123522" data-name="Path 123522" d="M526.54,452.809l11.1-6.359,10.954,6.408-11,6.357Z" transform="translate(-317.572 -213.929)" fill="#e6e7e8"/>
    <path id="Path_123523" data-name="Path 123523" d="M578.385,501.813l-.015-.006v0l.011-5.111L583,494.01v5.153Z" transform="translate(-358.361 -251.357)" fill="#fff"/>
    <path id="Path_123524" data-name="Path 123524" d="M589.388,489.213l-11.078,6.363v-.021l.006-3.72.011.006,7.88-4.538-.015-8.92,3.164-1.834Z" transform="translate(-358.314 -237.617)" fill="#fff"/>
    <g id="Group_46664" data-name="Group 46664" transform="translate(184.266 216.509)">
      <g id="Group_46663" data-name="Group 46663" transform="translate(0 0)">
        <path id="Path_123525" data-name="Path 123525" d="M410.59,379.987V371.4a.1.1,0,0,1,.1-.094h5.449a2.355,2.355,0,0,1,2.418,2.282,2.285,2.285,0,0,1-1.489,2.1,2.289,2.289,0,0,1,1.489,2.1,2.356,2.356,0,0,1-2.418,2.282H410.69A.1.1,0,0,1,410.59,379.987Zm5.552-4.467a1.933,1.933,0,1,0,0-3.86h-5.179v3.86Zm2.045,2.282a1.993,1.993,0,0,0-2.047-1.93h-5.179v3.86h5.179A1.994,1.994,0,0,0,418.187,377.8Z" transform="translate(-410.59 -371.306)" fill="#fff"/>
        <path id="Path_123526" data-name="Path 123526" d="M453.71,375.686a4.658,4.658,0,1,1,4.651,4.386A4.529,4.529,0,0,1,453.71,375.686Zm.373,0a4.286,4.286,0,1,0,4.28-4.035A4.168,4.168,0,0,0,454.083,375.686Z" transform="translate(-444.524 -371.298)" fill="#fff"/>
        <path id="Path_123527" data-name="Path 123527" d="M504.63,375.686a4.658,4.658,0,1,1,4.651,4.386A4.529,4.529,0,0,1,504.63,375.686Zm.371,0a4.286,4.286,0,1,0,4.28-4.035A4.168,4.168,0,0,0,505,375.686Z" transform="translate(-484.596 -371.298)" fill="#fff"/>
        <path id="Path_123528" data-name="Path 123528" d="M555.55,380V371.4a.1.1,0,0,1,.1-.094h.17a.1.1,0,0,1,.1.094v8.127l3.423-3.894h0l.111-.126,3.662-4.165a.1.1,0,0,1,.077-.034h.221a.1.1,0,0,1,.092.053.09.09,0,0,1-.013.1l-3.72,4.231,3.72,4.231a.087.087,0,0,1,.013.1.1.1,0,0,1-.092.055h-.221a.1.1,0,0,1-.077-.034l-3.583-4.077-3.583,4.077a.1.1,0,0,1-.077.034h-.222a.106.106,0,0,1-.026,0l-.006,0a.076.076,0,0,1-.019-.008.007.007,0,0,0,0,0,.119.119,0,0,1-.019-.015l0,0a.046.046,0,0,1-.011-.017l0,0v0a.078.078,0,0,1-.009-.023S555.55,380,555.55,380Z" transform="translate(-524.669 -371.306)" fill="#fff"/>
        <path id="Path_123529" data-name="Path 123529" d="M622.953,371.424a.1.1,0,0,1,.008-.09.1.1,0,0,1,.083-.043h.185a.105.105,0,0,1,.094.057l3.6,8.163,1.472-3.334-2.1-4.757a.1.1,0,0,1,.008-.089.1.1,0,0,1,.083-.043h.188a.1.1,0,0,1,.092.058l1.932,4.374,1.932-4.374a.1.1,0,0,1,.091-.058h.185a.1.1,0,0,1,.083.043.09.09,0,0,1,.009.089l-2.1,4.757,1.472,3.334,3.6-8.163a.1.1,0,0,1,.094-.057h.185a.1.1,0,0,1,.083.043.09.09,0,0,1,.008.09l-3.79,8.583s0,0,0,.006a.027.027,0,0,1-.006.011s0,0,0,0a.031.031,0,0,0-.006.009.056.056,0,0,1-.013.011l-.008.006a.065.065,0,0,0-.017.009s0,0-.008,0a.107.107,0,0,1-.028,0h-.185a.126.126,0,0,1-.028,0l-.008,0a.064.064,0,0,1-.017-.009l-.008-.006-.013-.011a.029.029,0,0,1-.006-.009l0,0-.006-.011s0,0,0-.006l-1.489-3.37-1.489,3.37s0,0,0,.006l-.006.011s0,0,0,0a.031.031,0,0,0-.006.009.055.055,0,0,1-.013.011l-.008.006a.125.125,0,0,0-.017.009l-.008,0a.108.108,0,0,1-.028,0h-.185a.126.126,0,0,1-.028,0l-.008,0a.064.064,0,0,1-.017-.009l-.008-.006-.013-.011a.03.03,0,0,1-.006-.009l0,0-.006-.011s0,0,0-.006Z" transform="translate(-577.706 -371.29)" fill="#fff"/>
        <path id="Path_123530" data-name="Path 123530" d="M683.34,379.971v-8.6a.1.1,0,0,1,.008-.023v0l0,0,.013-.017,0,0a.121.121,0,0,1,.019-.015s0,0,0,0a.073.073,0,0,1,.019-.008l.006,0a.107.107,0,0,1,.026,0h4.512a3.27,3.27,0,0,1,3.357,3.166,3.168,3.168,0,0,1-2.2,2.974l2.179,2.478a.087.087,0,0,1,.013.1.1.1,0,0,1-.092.055h-.222a.1.1,0,0,1-.077-.034l-2.19-2.49a3.54,3.54,0,0,1-.767.083h-4.239v2.346a.1.1,0,0,1-.1.094h-.17A.094.094,0,0,1,683.34,379.971Zm.373-8.327v5.63h4.239a3.089,3.089,0,0,0,.66-.07l.087-.019c.03-.006.06-.015.089-.023a2.858,2.858,0,0,0,2.145-2.7,2.908,2.908,0,0,0-2.985-2.816h-4.237Z" transform="translate(-625.235 -371.29)" fill="#fff"/>
        <path id="Path_123531" data-name="Path 123531" d="M728.02,379.987V371.4a.1.1,0,0,1,.1-.094h.17a.1.1,0,0,1,.1.094v8.583a.1.1,0,0,1-.1.094h-.17A.1.1,0,0,1,728.02,379.987Z" transform="translate(-660.397 -371.306)" fill="#fff"/>
        <path id="Path_123532" data-name="Path 123532" d="M737.07,371.556v-.162a.1.1,0,0,1,.1-.094h7.767a.1.1,0,0,1,.1.094v.162a.1.1,0,0,1-.1.094h-3.7v8.327a.1.1,0,0,1-.1.094h-.17a.1.1,0,0,1-.1-.094v-8.327h-3.7A.1.1,0,0,1,737.07,371.556Z" transform="translate(-667.519 -371.298)" fill="#fff"/>
        <path id="Path_123533" data-name="Path 123533" d="M781.75,379.987V371.4a.1.1,0,0,1,.1-.094h.17a.1.1,0,0,1,.1.094v8.583a.1.1,0,0,1-.1.094h-.17A.1.1,0,0,1,781.75,379.987Z" transform="translate(-702.68 -371.306)" fill="#fff"/>
        <path id="Path_123534" data-name="Path 123534" d="M790.79,379.971v-8.6a.1.1,0,0,1,.008-.023v0l0,0a.077.077,0,0,1,.011-.017l0,0a.123.123,0,0,1,.019-.015s0,0,0,0a.074.074,0,0,1,.019-.008l.006,0a.106.106,0,0,1,.026,0h.221a.1.1,0,0,1,.077.034l3.773,4.29,3.423,3.9v-8.127a.1.1,0,0,1,.1-.094h.17a.1.1,0,0,1,.1.094v8.583a.019.019,0,0,1,0,.011v.006a.108.108,0,0,1-.009.023h0l0,0a.052.052,0,0,1-.013.017s0,0,0,0a.117.117,0,0,1-.019.015,0,0,0,0,0,0,0,.064.064,0,0,1-.021.009.008.008,0,0,0-.006,0,.107.107,0,0,1-.026,0h-.222a.1.1,0,0,1-.077-.034l-3.662-4.165-.111-.128-3.423-3.894v8.127a.1.1,0,0,1-.1.094h-.17A.093.093,0,0,1,790.79,379.971Z" transform="translate(-709.795 -371.29)" fill="#fff"/>
        <path id="Path_123535" data-name="Path 123535" d="M836.827,378.786a4.218,4.218,0,0,1,0-6.2,4.853,4.853,0,0,1,6.451-.115c.043.036.085.075.126.115a.092.092,0,0,1,.03.068.09.09,0,0,1-.032.068l-.123.111a.1.1,0,0,1-.141,0c-.043-.04-.083-.077-.119-.109a4.463,4.463,0,0,0-5.929.111,3.88,3.88,0,0,0,0,5.707,4.469,4.469,0,0,0,5.929.111l.045-.038V375.6a.1.1,0,0,1,.1-.094h.17a.1.1,0,0,1,.1.094v3.134s0,.006,0,.009,0,.006,0,.009,0,0,0,.006,0,.006,0,.009l-.013.015c-.043.04-.085.079-.126.115l-.049.043a4.859,4.859,0,0,1-6.406-.156Z" transform="translate(-744.954 -371.296)" fill="#fff"/>
      </g>
    </g>
    <path id="Path_123536" data-name="Path 123536" d="M407.41,452.959a11.1,11.1,0,0,0,0,16.331,12.776,12.776,0,0,0,16.957.317c.111-.094.224-.2.345-.311a.3.3,0,0,1,.4,0l.354.32a.259.259,0,0,1,.006.386c-.124.117-.245.228-.362.328a13.68,13.68,0,0,1-9.043,3.347c-.079,0-.155,0-.236,0A13.648,13.648,0,0,1,406.658,470a12.068,12.068,0,0,1,0-17.75,13.885,13.885,0,0,1,18.455-.328c.121.107.243.215.36.328a.259.259,0,0,1-.006.386l-.354.32a.3.3,0,0,1-.4,0c-.124-.115-.236-.217-.343-.311a12.763,12.763,0,0,0-16.957.322Z" transform="translate(-220.168 -215.598)" fill="#fff"/>
    <path id="Path_123537" data-name="Path 123537" d="M655.22,473.413V448.851a.279.279,0,0,1,.288-.271H671.1a6.738,6.738,0,0,1,6.917,6.525,6.546,6.546,0,0,1-4.261,6.025,6.546,6.546,0,0,1,4.261,6.025,6.738,6.738,0,0,1-6.917,6.525H655.508A.273.273,0,0,1,655.22,473.413ZM671.1,460.631a5.533,5.533,0,1,0,0-11.048H656.283v11.046H671.1Zm5.854,6.525a5.7,5.7,0,0,0-5.854-5.524H656.283v11.046H671.1A5.7,5.7,0,0,0,676.952,467.157Z" transform="translate(-418.839 -215.605)" fill="#fff"/>
    <path id="Path_123538" data-name="Path 123538" d="M782.5,449.583v11.046h13.871a.28.28,0,0,1,.288.271v.462a.279.279,0,0,1-.288.271H782.5v11.046H801.5a.28.28,0,0,1,.288.271v.462a.279.279,0,0,1-.288.271H781.718a.28.28,0,0,1-.288-.271V448.851a.279.279,0,0,1,.288-.271H801.5a.28.28,0,0,1,.288.271v.462a.279.279,0,0,1-.288.271Z" transform="translate(-518.162 -215.605)" fill="#fff"/>
    <path id="Path_123539" data-name="Path 123539" d="M123,367.706v-7.793a2.1,2.1,0,0,1,1.078-1.868l11.755-6.787,11.755-6.785a2.107,2.107,0,0,1,2.158,0l11.753,6.785,11.753,6.787a2.108,2.108,0,0,1,1.08,1.868l0,2.139q-12.737,7.353-25.477,14.7h0a.374.374,0,0,0-.187.326v2.652a.375.375,0,0,0,.375.375.382.382,0,0,0,.19-.051h0l9.339-5.39.019-.011,15.743-9.086v3.385l-24.588,14.188a2.108,2.108,0,0,1-2.158,0l-23.508-13.57A2.108,2.108,0,0,1,123,367.706" transform="translate(0 -133.442)" fill="#fff" fill-rule="evenodd"/>
    <path id="Path_123540" data-name="Path 123540" d="M161.507,479.549l-11.753,6.785h0l-.032.017h0l-.034.017h0l-.032.017h0l-.032.017h0l-.032.015h0l-.034.015h0l-.034.015h0l-.032.013h0l-.032.013h0l-.034.013h0l-.034.013h0l-.034.011h0l-.034.011v0l-.034.011h0l-.032.009h0l-.034.009h0l-.034.009h0l-.034.009h0l-.034.009h0l-.034.006h0l-.034.006h0l-.034.006h0l-.034,0h0l-.034,0v0l-.034,0h0l-.034,0h0l-.036,0h0l-.034,0h-.275l-.036,0h0l-.034,0h0l-.034,0h0l-.034,0v0l-.034,0h0l-.034,0h0l-.034-.006h0l-.034-.006h0l-.034-.006h0l-.034-.009h0l-.034-.009h0l-.034-.009h0l-.034-.009h0l-.034-.009h0l-.034-.011v0l-.032-.011h0l-.034-.011h0l-.032-.013h0l-.034-.013h0l-.034-.013h0l-.032-.013h0l-.034-.015h0l-.032-.015h0l-.032-.015h0l-.034-.017h0l-.032-.017h0l-.032-.017h0l-.032-.017h0l-11.755-6.785-11.755-6.787a2.11,2.11,0,0,1-1.078-1.87v-5.043a2.158,2.158,0,0,1,3.238-1.87L147.6,476.3a2.108,2.108,0,0,0,2.158,0L174.34,462.11v3.253l-21.668,12.505a.374.374,0,0,0-.049.03l-3.762,2.171h0a.374.374,0,0,0-.187.326v2.652a.376.376,0,0,0,.375.375.383.383,0,0,0,.19-.051h0l9.339-5.39.051-.03,15.711-9.069v3.259q-6.413,3.7-12.833,7.407" transform="translate(-0.008 -226.253)" fill="#e6e7e8" fill-rule="evenodd"/>
    <path id="Path_123541" data-name="Path 123541" d="M173.253,521.49,161.5,528.277l-11.753,6.785a2.107,2.107,0,0,1-2.158,0l-11.755-6.785-11.755-6.787A2.109,2.109,0,0,1,123,519.621v-5.042a2.158,2.158,0,0,1,3.238-1.87l21.348,12.324a2.107,2.107,0,0,0,2.158,0l24.586-14.192V514.1L153.756,525.97l-.038.021-4.868,2.81h0a.374.374,0,0,0-.187.326v2.652a.376.376,0,0,0,.375.375.382.382,0,0,0,.19-.051h0l9.339-5.39.034-.019,15.728-9.079v2.009a2.1,2.1,0,0,1-1.076,1.866" transform="translate(0 -264.602)" fill="#d1d3d4" fill-rule="evenodd"/>
    <path id="Path_123542" data-name="Path 123542" d="M180.56,388.723v4.137s.341,1.587,3.117,2.154a33.905,33.905,0,0,0,19.782-.283s2.267-1.02,2.267-2.324v-4.082s-.884-3.85-13.892-3.509C191.836,384.818,183.794,384.245,180.56,388.723Z" transform="translate(-45.298 -165.407)" fill="#fff" opacity="0.08"/>
    <path id="Path_123543" data-name="Path 123543" d="M180.56,381.02v4.137s.341,1.587,3.117,2.154a33.927,33.927,0,0,0,19.782-.283s2.267-1.02,2.267-2.324v-3.577s-.884-4.354-13.892-4.014C191.836,377.113,183.794,376.542,180.56,381.02Z" transform="translate(-45.298 -159.345)" fill="#d1d3d4"/>
    <path id="Path_123544" data-name="Path 123544" d="M205.634,381.227c0,2.1-5.633,3.04-12.582,3.04s-12.582-1.7-12.582-3.8,5.633-3.8,12.582-3.8S205.634,379.131,205.634,381.227Z" transform="translate(-45.227 -159.015)" fill="#fff"/>
    <path id="Path_123545" data-name="Path 123545" d="M212.018,385.756c0,1.642-4.663,2.976-10.413,2.976s-10.415-1.334-10.415-2.976,4.663-2.976,10.415-2.976S212.018,384.111,212.018,385.756Z" transform="translate(-53.663 -163.823)" fill="#e6e7e8"/>
    <path id="Path_123546" data-name="Path 123546" d="M243.512,207.786c.1-.179.162-.29.236-.42a7.37,7.37,0,0,1-2.088-1.246,5.251,5.251,0,0,0,2.273.829,8.764,8.764,0,0,0-1.783-1.747,7.773,7.773,0,0,1,1.913,1.383,4.409,4.409,0,0,0-.937-2,4.357,4.357,0,0,1,1.182,1.668c.19-.364.364-.684.511-1.01.023-.053-.045-.158-.1-.213a5.739,5.739,0,0,0-1.9-1.127.478.478,0,0,1-.228-.141c.283.089.571.168.846.275a7.734,7.734,0,0,1,.807.371c.268.141.518.3.795.471.055-.1.1-.179.158-.277a5.509,5.509,0,0,1-1.9-1.425,1.473,1.473,0,0,1-.317-1.191c.009-.051.047-.113.026-.153-.3-.571.262-1.033.322-1.559,0-.023.026-.047.045-.07a.938.938,0,0,1,.083-.06,6.761,6.761,0,0,0,1.453,2.761c.006-.068.019-.092.011-.109-.394-.878-.795-1.753-1.18-2.631a.764.764,0,0,1,.192-.869.653.653,0,0,0,.1-.271,2.979,2.979,0,0,1,.134-.426c.609,1.268.963,2.648,2.3,3.6-.467-.775-.92-1.5-1.342-2.239-.222-.39-.371-.812-.575-1.21a1.5,1.5,0,0,1-.068-1.059.24.24,0,0,1,.017-.051c.151-.3.3-.605.45-.9.2.56.411,1.133.622,1.706.028-.009.06-.015.089-.023-.085-.33-.179-.658-.249-.991a4.122,4.122,0,0,1-.164-1.069,1.982,1.982,0,0,1,.249-1.1c.124-.181.143-.411.26-.6a3.985,3.985,0,0,1,.424-.475.97.97,0,0,0,.156-.222,4.277,4.277,0,0,1,1.161-1.583c.145-.113.313-.2.516-.326a9.662,9.662,0,0,0,1.483,4.235c-.2-.528-.42-1.05-.6-1.585a11.312,11.312,0,0,1-.541-2.936c0-.066-.009-.16.036-.2a1.444,1.444,0,0,0,.441-1.008,1.053,1.053,0,0,1,.072-.147,1.677,1.677,0,0,1,.273.373c.126.4.224.8.33,1.2.023.094.036.187.066.277-.06-.575-.115-1.152-.185-1.728-.019-.164-.1-.322-.121-.488a.413.413,0,0,1,.094-.29,3.536,3.536,0,0,1,.575-.528,11.231,11.231,0,0,0,1.4,4.109c-.194-.586-.428-1.163-.571-1.76a19.926,19.926,0,0,1-.473-2.518,1.072,1.072,0,0,1,.456-1.029.376.376,0,0,0,.117-.179,2.029,2.029,0,0,1,.671-1.1c.047-.034.058-.111.085-.168a2.47,2.47,0,0,1,.871-.927,3.474,3.474,0,0,0,.373,1.821c-.049-.46-.085-.922-.149-1.38a1.535,1.535,0,0,1,.343-1.187c.064-.081.138-.2.226-.215.356-.07.467-.334.66-.537a4.864,4.864,0,0,1,.469-.381,8.084,8.084,0,0,0,.688,3.443c-.038-.16-.077-.32-.109-.481s-.064-.347-.081-.524c-.083-.824-.168-1.649-.239-2.473-.023-.281.435-.765.8-.9a.472.472,0,0,0,.217-.13,6.481,6.481,0,0,1,1.155-1.193,6.234,6.234,0,0,1,1.391-.871,14.806,14.806,0,0,0,.328,3.8l.126-.013c-.06-.567-.158-1.131-.17-1.7-.017-.722.038-1.447.053-2.171a.69.69,0,0,1,.313-.556c.232-.177.441-.377.7-.6.028.752.053,1.44.077,2.13l.062,0c.04-.53.1-1.063.115-1.594a1.449,1.449,0,0,1,.795-1.28c.507-.3.969-.654,1.478-1,0,.816,0,1.574.006,2.333l.072,0c.051-.641.109-1.282.156-1.924a.9.9,0,0,1,.524-.814,10.964,10.964,0,0,0,.976-.682,5.666,5.666,0,0,1,.5-.271c-.011.388-.021.733-.032,1.078l.075,0c.034-.232.062-.467.1-.7a1.152,1.152,0,0,1,1.042-.91,2.262,2.262,0,0,0,.569-.19,5,5,0,0,1,1.753-.541c.605-.064,1.2-.247,1.8-.349a9.219,9.219,0,0,1,1.084-.089c.072,0,.194.051.209.1a13.117,13.117,0,0,1,.4,1.374c.085.409.026.437-.443.528-.639.126-1.278.268-1.913.407a2.931,2.931,0,0,0-.322.111c.841-.087,1.634-.17,2.516-.264-.128.407-.241.792-.377,1.176-.015.045-.13.087-.2.1-.584.068-1.17.126-1.764.217l1.809.017c-.17.213-.028.575-.443.737-.051.019-.053.145-.068.224-.083.449-.239.586-.754.633-1.146.1-2.3.2-3.4.294a14.005,14.005,0,0,0,3.645-.121c-.072.219-.13.4-.19.569-.119.337-.264.671-.354,1.012a2.393,2.393,0,0,1-.518,1.216.312.312,0,0,0-.051.149,6.946,6.946,0,0,1-1.012,2.348.842.842,0,0,1-.778.383,20.539,20.539,0,0,1-3.7-.258.333.333,0,0,0-.151,0,23.139,23.139,0,0,0,4.378.556,4.3,4.3,0,0,1-.588,1.212,4.055,4.055,0,0,0-.562,1.146,3.45,3.45,0,0,1-.392.467c-.158.2-.311.4-.454.611a.817.817,0,0,1-.827.32,35.084,35.084,0,0,1-5.9-.68c-.017,0-.036.009-.1.026a26.513,26.513,0,0,0,5.965.908c-.149.349-.285.682-.437,1.012a.619.619,0,0,1-.213.292.876.876,0,0,0-.4.605c-.33,1.014-.565,1.161-1.762,1.012-1.363-.17-2.718-.375-4.154-.577a37.355,37.355,0,0,0,4.67.856c-.119.215-.224.422-.349.62-.051.081-.13.19-.219.213a.534.534,0,0,0-.394.413,1.461,1.461,0,0,1-.743.982c-.156.079-.181.36-.3.624-1.442-.153-2.923-.311-4.4-.467a.436.436,0,0,0-.015.049c1.282.222,2.565.441,3.815.656-.175.251-.375.53-.567.814a.561.561,0,0,1-.535.215,26.246,26.246,0,0,1-4.354-.428.075.075,0,0,0-.066.026,26.848,26.848,0,0,0,4.148.669c0,.032-.006.064-.011.1l-5.266-.173a30.8,30.8,0,0,0,5.019.324c-.13.243-.243.492-.392.722a5.526,5.526,0,0,1-.422.507.8.8,0,0,0-.17.228,1.663,1.663,0,0,1-.656.865.416.416,0,0,0-.153.209,1.444,1.444,0,0,1-1.525,1.072c-1.044-.03-2.083-.1-3.123-.149-.185-.009-.369-.026-.552-.038-.006.021-.013.043-.017.064.332.072.663.151,1,.211s.707.111,1.065.151.694.068,1.046.089.716.03,1.055.043a2.989,2.989,0,0,1-.422.669c-.407.388-.675.886-1.293,1.116a1.251,1.251,0,0,0-.467.454.581.581,0,0,1-.479.288.706.706,0,0,0-.588.358c-.049.079-.113.149-.17.224a11.583,11.583,0,0,0-4.431-.582,8.407,8.407,0,0,1,3.5.735c-.083-.019-.168-.034-.247-.058a11.461,11.461,0,0,0-4.092-.383.671.671,0,0,0-.328.128,7.6,7.6,0,0,1,3.747.554,1.222,1.222,0,0,1-.153-.032,6.257,6.257,0,0,0-3.613-.194.7.7,0,0,0-.339.3,5.858,5.858,0,0,1,2.582.04c-.121,0-.241-.011-.36-.013a2.182,2.182,0,0,0-.373,0c-.586.075-1.172.16-1.755.241-.281.038-.358.215-.418.441a12,12,0,0,0,3.428.049c0,.026.009.049.011.075-.479.066-.961.158-1.442.19-.633.045-1.268.058-1.9.053-.279,0-.4.083-.447.334.262.047.528.094.795.143,0,.013,0,.026,0,.036a3.823,3.823,0,0,1-.626-.015c-.254-.043-.345.051-.392.283a18.187,18.187,0,0,0,4.15-.232c0,.021.006.043.011.064-.352.07-.7.168-1.052.2-1,.107-2.009.194-3.014.277-.213.019-.369.057-.379.292a5.506,5.506,0,0,0,2.03.4c0,.03-.009.058-.015.087l-2.192-.164c-.06.113-.145.273-.251.471,1.174.166,2.343.026,3.5.13-.6.036-1.2.081-1.8.107-.55.026-1.1.028-1.651.049-.343.013-.247.3-.432.475a6.6,6.6,0,0,1,2.614.215,6.825,6.825,0,0,0-2.335.04c-.324.036-.522.128-.573.411a1.074,1.074,0,0,1-.081.2c.68.113,1.346.226,2.013.339a.461.461,0,0,0-.015.051l-2.054-.124a1.54,1.54,0,0,0,.9.731c-.015.019-.03.038-.043.058-.345-.153-.692-.3-1.044-.458-1.932,4.329-3.379,8.8-5.322,13.134-.043-.009-.085-.017-.13-.023a10.654,10.654,0,0,1,.251-1.368c.584-1.828,1.172-3.654,1.815-5.466.667-1.883,1.4-3.749,2.107-5.635-.322-.194-.658-.4-1-.6l.079-.085,1.016.528c.124-.283.228-.522.347-.8l-2.094-.145a.317.317,0,0,1,0-.045l2.141-.119-1.853-.805c.019-.032.04-.064.06-.1a2.323,2.323,0,0,0,.358.16c.486.132.974.258,1.466.371a.3.3,0,0,0,.234-.107,5.883,5.883,0,0,0,.266-.556,5.738,5.738,0,0,1-2.188-1.3,6.1,6.1,0,0,0,2.348.939c.085-.166.173-.337.26-.511l-1.845-.671c.009-.013.015-.026.023-.038l1.853.426c-.407-.3-.773-.569-1.14-.839.017-.017.032-.036.047-.053C242.594,207.447,243.042,207.611,243.512,207.786ZM238.956,220.1l.064.006c.036-.092.075-.183.111-.277a119.889,119.889,0,0,1,5.494-12.8,115.672,115.672,0,0,1,10.091-16.131,86.007,86.007,0,0,1,11.212-12.315c.567-.513,1.14-1.025,1.708-1.536a3.266,3.266,0,0,0-.6.415,75.262,75.262,0,0,0-9.009,8.675,86.612,86.612,0,0,0-7.45,9.925,120.851,120.851,0,0,0-6.329,10.807,90.261,90.261,0,0,0-4.859,11.938C239.245,219.234,239.1,219.666,238.956,220.1Z" transform="translate(-90.179 0)" fill="#fff" fill-rule="evenodd"/>
    <path id="Path_123547" data-name="Path 123547" d="M537.574,487.866v0l.015.006Zm11.012-11.517L526.53,476.3l.1,12.763,10.907,6.308.023-.015,11.078-6.344V476.345h-.051Zm-11.007,15.3-.011-.006-7.514-4.531v-8.852l3.176,1.787v5.16l4.344,2.665v0l.015.006,4.616-2.65v-5.16l3.24-1.881v0l.015,8.918Z" transform="translate(-317.565 -237.42)" fill="#d1d3d4"/>
    <g id="Group_46665" data-name="Group 46665" transform="translate(219.996 238.933)">
      <path id="Path_123548" data-name="Path 123548" d="M583,493.99v5.158l-4.614,2.65-.015-.011.011-5.111Z" transform="translate(-578.357 -490.275)" fill="#fff"/>
      <path id="Path_123549" data-name="Path 123549" d="M589.388,489.213l-11.078,6.363v-.021l.006-3.72.011.006,7.88-4.538-.015-8.92,3.164-1.834Z" transform="translate(-578.31 -476.55)" fill="#fff"/>
    </g>
    <line id="Line_223" data-name="Line 223" x1="0.111" y1="0.045" transform="translate(230.931 254.446)" fill="#231f20"/>
    <line id="Line_224" data-name="Line 224" y1="0.045" x2="0.111" transform="translate(208.844 254.534)" fill="#231f20"/>
  </g>
</svg>
