<svg xmlns="http://www.w3.org/2000/svg" width="70.427" height="65" viewBox="0 0 70.427 65">
  <g id="publish_1_" data-name="publish (1)" transform="translate(0 -19.727)">
    <path id="Path_124033" data-name="Path 124033" d="M91.193,84.727H54.663A1.032,1.032,0,0,1,53.631,83.7V20.759a1.032,1.032,0,0,1,1.032-1.032H91.193a3.809,3.809,0,0,1,3.8,3.8,1.032,1.032,0,0,1-2.063,0,1.744,1.744,0,0,0-1.742-1.742h-35.5V82.664h35.5a1.744,1.744,0,0,0,1.742-1.742V50.685a1.032,1.032,0,0,1,2.063,0V80.922A3.809,3.809,0,0,1,91.193,84.727Z" transform="translate(-46.254)" fill="#fff"/>
    <path id="Path_124034" data-name="Path 124034" d="M340.4,43.512a1.032,1.032,0,0,1-1.032-1.032V40.5a1.092,1.092,0,0,1,1.032-1.1.976.976,0,0,1,1.032.964v2.12A1.032,1.032,0,0,1,340.4,43.512Z" transform="translate(-292.688 -16.963)" fill="#fff"/>
    <path id="Line_255" data-name="Line 255" d="M24.557-5.437H-6.468A1.032,1.032,0,0,1-7.5-6.468,1.032,1.032,0,0,1-6.468-7.5H24.557a1.032,1.032,0,0,1,1.032,1.032A1.032,1.032,0,0,1,24.557-5.437Z" transform="translate(19.017 82.52)" fill="#fff"/>
    <path id="Line_256" data-name="Line 256" d="M6.77-5.437H-6.468A1.032,1.032,0,0,1-7.5-6.468,1.032,1.032,0,0,1-6.468-7.5H6.77A1.032,1.032,0,0,1,7.8-6.468,1.032,1.032,0,0,1,6.77-5.437Z" transform="translate(27.91 78.732)" fill="#fff"/>
    <path id="Path_124035" data-name="Path 124035" d="M115.785,311.3H93.519a1.032,1.032,0,1,1,0-2.063h21.234v-4.718H85.791v4.718h2.9a1.032,1.032,0,0,1,0,2.063H84.76a1.032,1.032,0,0,1-1.032-1.032v-6.782a1.032,1.032,0,0,1,1.032-1.032h31.025a1.032,1.032,0,0,1,1.032,1.032v6.782A1.032,1.032,0,0,1,115.785,311.3Z" transform="translate(-72.211 -243.841)" fill="#fff"/>
    <path id="Path_124036" data-name="Path 124036" d="M8.409,84.726H3.8a3.809,3.809,0,0,1-3.8-3.8V23.532a3.809,3.809,0,0,1,3.8-3.8h4.6a1.032,1.032,0,0,1,1.032,1.032V83.695A1.032,1.032,0,0,1,8.409,84.726ZM3.8,21.79a1.743,1.743,0,0,0-1.741,1.741v57.39A1.743,1.743,0,0,0,3.8,82.663H7.378V21.79Z" transform="translate(0 0)" fill="#fff"/>
    <g id="Group_52968" data-name="Group 52968" transform="translate(62.801 28.286)">
      <path id="Path_124037" data-name="Path 124037" d="M478.974,96.688a1.032,1.032,0,0,1-.729-1.761,7.943,7.943,0,0,0,0-11.219,1.032,1.032,0,0,1,1.459-1.459,10.007,10.007,0,0,1,0,14.137A1.028,1.028,0,0,1,478.974,96.688Z" transform="translate(-475.001 -81.947)" fill="#fff"/>
      <path id="Path_124038" data-name="Path 124038" d="M457.592,112.188a1.032,1.032,0,0,1-.73-1.761,3.778,3.778,0,0,0,0-5.337,1.032,1.032,0,0,1,1.459-1.459,5.844,5.844,0,0,1,0,8.255A1.028,1.028,0,0,1,457.592,112.188Z" transform="translate(-456.56 -100.388)" fill="#fff"/>
    </g>
    <path id="Path_124039" data-name="Path 124039" d="M163.229,101.959h-4.6a2.954,2.954,0,0,1-2.951-2.951v-6.84a2.954,2.954,0,0,1,2.951-2.951h4.6a1.032,1.032,0,0,1,1.032,1.032v10.678A1.032,1.032,0,0,1,163.229,101.959Zm-4.6-10.678a.888.888,0,0,0-.887.887v6.84a.888.888,0,0,0,.887.887H162.2V91.28Z" transform="translate(-134.261 -59.931)" fill="#fff"/>
    <path id="Path_124040" data-name="Path 124040" d="M226.614,71.976h0a3.223,3.223,0,0,1-.8-.1l-21.946-5.62a1.032,1.032,0,0,1-.776-1V54.576a1.032,1.032,0,0,1,.776-1l21.946-5.62a3.2,3.2,0,0,1,4,3.1V68.772a3.2,3.2,0,0,1-3.2,3.2Zm-21.458-7.522,21.171,5.422a1.151,1.151,0,0,0,.287.037,1.141,1.141,0,0,0,1.135-1.14V51.059a1.139,1.139,0,0,0-1.135-1.14,1.158,1.158,0,0,0-.287.037l-21.171,5.422Z" transform="translate(-175.157 -24.259)" fill="#fff"/>
    <path id="Path_124041" data-name="Path 124041" d="M383.37,102.835h3.472a2.6,2.6,0,0,1,2.593,2.593v3.81a2.6,2.6,0,0,1-2.593,2.593H383.37a1.032,1.032,0,0,1-1.032-1.032v-6.932A1.032,1.032,0,0,1,383.37,102.835Zm3.472,6.932a.53.53,0,0,0,.529-.529v-3.81a.53.53,0,0,0-.529-.529H384.4v4.868Z" transform="translate(-329.746 -71.676)" fill="#fff"/>
    <path id="Path_124042" data-name="Path 124042" d="M179.467,166.846a1.031,1.031,0,0,1,.256.032l9.428,2.414a1.032,1.032,0,0,1,.242,1.9L183.75,174.3l-1.96,4.47a2.711,2.711,0,0,1-3.517,1.419l-2.089-.861a2.712,2.712,0,0,1-1.432-3.637l3.778-8.245A1.032,1.032,0,0,1,179.467,166.846Zm6.648,3.8-6.069-1.554-3.419,7.461a.649.649,0,0,0,.343.87l2.089.861a.648.648,0,0,0,.842-.339l2.1-4.791a1.032,1.032,0,0,1,.447-.49Z" transform="translate(-150.5 -126.882)" fill="#fff"/>
  </g>
</svg>
