<svg xmlns="http://www.w3.org/2000/svg" width="60" height="60" viewBox="0 0 60 60">
  <g id="book-cover" transform="translate(-6 -5.999)">
    <path id="Path_124024" data-name="Path 124024" d="M8.544,85.038h6.682a.732.732,0,0,0,.732-.732V30.032a.732.732,0,0,0-.732-.732H8.544A2.547,2.547,0,0,0,6,31.843V82.493A2.547,2.547,0,0,0,8.544,85.038ZM7.463,31.843a1.082,1.082,0,0,1,1.081-1.079h5.95v2.511H13.126a.732.732,0,1,0,0,1.463h1.368v2.332H13.126a.732.732,0,0,0,0,1.463h1.368v2.332H10.829a.732.732,0,1,0,0,1.463h3.665V44.66H13.126a.732.732,0,0,0,0,1.463h1.368v2.332H13.126a.732.732,0,1,0,0,1.463h1.368v2.332H10.829a.732.732,0,1,0,0,1.463h3.665v2.332H13.126a.732.732,0,1,0,0,1.463h1.368v2.332H13.126a.732.732,0,0,0,0,1.463h1.368v2.332H10.829a.732.732,0,0,0,0,1.463h3.665v2.332H13.126a.732.732,0,0,0,0,1.463h1.368v2.331H13.126a.732.732,0,0,0,0,1.463h1.368v2.332H10.829a.732.732,0,1,0,0,1.463h3.665v2.333H13.126a.732.732,0,0,0,0,1.463h1.368v3.293H8.544a1.081,1.081,0,0,1-1.081-1.081Z" transform="translate(0 -19.039)" fill="#fff"/>
    <path id="Path_124025" data-name="Path 124025" d="M124.524,299.607h.251a.732.732,0,1,0,0-1.463h-.251a.732.732,0,1,0,0,1.463Z" transform="translate(-96.245 -238.704)" fill="#fff"/>
    <path id="Path_124026" data-name="Path 124026" d="M91.964,44.36a.732.732,0,0,0,.732.732h3.051a.726.726,0,0,0,.13-.013l.038-.008a.721.721,0,0,0,.094-.029l.03-.011a.739.739,0,0,0,.1-.055l5.2-3.329.008-.007a.732.732,0,0,0,.1-.082l.01-.01a.737.737,0,0,0,.076-.09l.01-.012,21.261-30.828a2.493,2.493,0,0,0-.636-3.463l-1.038-.716a2.493,2.493,0,0,0-3.463.636l-1.016,1.474h0L112.137,15.1H82c-.012,0-.023,0-.035,0s-.024,0-.037,0a6.191,6.191,0,0,0-3.5,1.515,6.924,6.924,0,0,0-2.354,5.259V60.031A5.826,5.826,0,0,0,81.889,66h34.356a.732.732,0,0,0,.732-.732V64.132a2,2,0,0,0-2-2h-.867a4.952,4.952,0,0,1,.038-3.65h.829a2,2,0,0,0,2-2V25.545a.732.732,0,0,0-1.463,0v28.8H82a5.983,5.983,0,0,0-4.467,2.015V21.874a5.462,5.462,0,0,1,1.848-4.152,4.752,4.752,0,0,1,2.665-1.162h29.087L96.409,37.9c-.009.013-.015.028-.023.042a.709.709,0,0,0-.037.067c-.009.02-.016.04-.024.061a.718.718,0,0,0-.023.073c0,.007-.005.014-.007.022l-1.143,5.459H92.7a.732.732,0,0,0-.732.732Zm20.424,15.08H89.272a.732.732,0,0,0,0,1.463H112.32a5.477,5.477,0,0,0,.23,1.23H81.889a1.826,1.826,0,0,1-1.823-1.915,1.884,1.884,0,0,1,1.9-1.736H112.6a7.49,7.49,0,0,0-.217.957ZM82,55.808h33.518v.677a.536.536,0,0,1-.535.535H81.961a3.289,3.289,0,1,0-.072,6.577h33.089a.536.536,0,0,1,.535.535v.4H81.889a4.364,4.364,0,0,1-4.362-4.487A4.448,4.448,0,0,1,82,55.808ZM97.449,39.8A10.006,10.006,0,0,0,99.4,41.149L96.82,42.8ZM117.443,9.982l2.727,1.881-19.5,28.274a8.541,8.541,0,0,1-2.727-1.881ZM120.3,7.643l1.037.715a1.028,1.028,0,0,1,.262,1.428l-.6.872-2.726-1.881.6-.872a1.028,1.028,0,0,1,1.427-.262Z" transform="translate(-57.246)" fill="#fff"/>
    <path id="Path_124027" data-name="Path 124027" d="M138.969,213.171h1.179a.732.732,0,0,0,0-1.463h-1.179a.732.732,0,1,0,0,1.463Z" transform="translate(-108.047 -168.08)" fill="#fff"/>
    <path id="Path_124028" data-name="Path 124028" d="M136.037,192.89c-.01.2-.016.393-.016.588a.732.732,0,1,0,1.463,0c0-.168,0-.34.014-.51a.732.732,0,1,0-1.461-.078Z" transform="translate(-106.237 -152.138)" fill="#fff"/>
    <path id="Path_124029" data-name="Path 124029" d="M139.894,173.641a.732.732,0,0,0,.94-.433c.1-.274.217-.547.345-.811a.732.732,0,0,0-1.319-.635c-.146.305-.281.622-.4.939A.732.732,0,0,0,139.894,173.641Z" transform="translate(-109.01 -135.102)" fill="#fff"/>
    <path id="Path_124030" data-name="Path 124030" d="M151.963,156.064c.2-.214.411-.422.629-.618a.732.732,0,1,0-.975-1.092c-.253.226-.5.466-.727.713a.732.732,0,0,0,1.073,1Z" transform="translate(-118.227 -121.066)" fill="#fff"/>
    <path id="Path_124031" data-name="Path 124031" d="M168.858,145.081a.729.729,0,0,0,.3-.067c.267-.122.541-.232.817-.328a.732.732,0,1,0-.48-1.382c-.319.111-.637.238-.946.38a.732.732,0,0,0,.305,1.4Z" transform="translate(-132.468 -112.155)" fill="#fff"/>
    <path id="Path_124032" data-name="Path 124032" d="M189.8,141.7c.169-.006.34-.007.51,0a.732.732,0,1,0,.029-1.463c-.2,0-.393,0-.588,0a.732.732,0,0,0,.024,1.463Z" transform="translate(-149.553 -109.675)" fill="#fff"/>
  </g>
</svg>
