<svg id="Walmart-Logo.wine" xmlns="http://www.w3.org/2000/svg" width="104.265" height="25" viewBox="0 0 104.265 25">
  <path id="Path_124079" data-name="Path 124079" d="M60.473,19.87c0-2.469-1.057-4.65-4.631-4.65a8.435,8.435,0,0,0-4.08.98l.579,1.981a6.02,6.02,0,0,1,2.983-.832c1.81,0,2.106,1.021,2.106,1.679v.158c-3.95-.006-6.447,1.358-6.447,4.138a3.285,3.285,0,0,0,3.484,3.291,3.988,3.988,0,0,0,3.177-1.407h.066s.45,1.882,2.938,1.163a16.394,16.394,0,0,1-.174-2.629Zm-2.947,2.607a1.9,1.9,0,0,1-.075.584,2.063,2.063,0,0,1-1.988,1.4,1.349,1.349,0,0,1-1.471-1.444c0-1.5,1.651-1.907,3.535-1.9M0,11.861S2.58,22.416,2.99,24.126c.483,2,1.348,2.737,3.845,2.245l1.613-6.545c.408-1.622.685-2.785.948-4.437h.045a43.552,43.552,0,0,0,.78,4.442s.658,2.974,1,4.531,1.268,2.54,3.717,2.009l3.839-14.51h-3.1L14.36,18.138c-.349,1.818-.666,3.251-.912,4.917H13.4c-.222-1.648-.5-3.022-.868-4.8L11.17,11.861H7.937L6.48,18.088c-.415,1.9-.8,3.426-1.048,5.04H5.39c-.252-1.514-.593-3.443-.955-5.273,0,0-.865-4.459-1.171-5.995M27.412,19.87c0-2.469-1.059-4.65-4.634-4.65a8.44,8.44,0,0,0-4.078.98l.579,1.981a6,6,0,0,1,2.983-.832c1.81,0,2.106,1.021,2.106,1.679v.158c-3.95-.006-6.449,1.358-6.449,4.138A3.286,3.286,0,0,0,21.4,26.615a3.975,3.975,0,0,0,3.179-1.407h.069s.452,1.882,2.938,1.163a16.272,16.272,0,0,1-.171-2.629Zm-2.949,2.607a1.984,1.984,0,0,1-.073.584,2.07,2.07,0,0,1-1.994,1.4,1.349,1.349,0,0,1-1.468-1.444c0-1.5,1.651-1.907,3.535-1.9m7.507,5.249V11.861H29.02V26.366ZM69.526,11.861v10.7A4.469,4.469,0,0,0,70.4,25.7a3.286,3.286,0,0,0,2.4.914,7.145,7.145,0,0,0,2.139-.316L74.905,24a4.723,4.723,0,0,1-1.125.13c-1.007,0-1.339-.638-1.339-1.964v-4.1H75.01V15.293H72.442V11.861M61.9,15.472v10.9h3.049V20.789a4.115,4.115,0,0,1,.066-.8,2.3,2.3,0,0,1,2.408-1.922,5.1,5.1,0,0,1,.874.082V15.291a3.129,3.129,0,0,0-3.642,2.24h-.075v-2.06m-30.9,0v10.9h2.971v-6.4a2.486,2.486,0,0,1,.139-.884,1.994,1.994,0,0,1,1.8-1.4c1.2,0,1.761,1.01,1.761,2.466v6.213H43.32V19.9a3.048,3.048,0,0,1,.123-.879,1.859,1.859,0,0,1,1.784-1.326c1.209,0,1.794.988,1.794,2.705v5.974h2.961V19.944c0-3.376-1.718-4.715-3.668-4.715a3.943,3.943,0,0,0-2.153.589,4.669,4.669,0,0,0-1.381,1.353h-.045a3.109,3.109,0,0,0-3.009-1.942,3.427,3.427,0,0,0-3.177,1.719H36.5V15.472" transform="translate(0 -6.566)" fill="#46abff"/>
  <path id="Path_124080" data-name="Path 124080" d="M189.939,8.416a1.079,1.079,0,0,0,1.137-.7l.578-6.543c0-.648-.763-1.178-1.715-1.178s-1.715.53-1.715,1.178l.583,6.543a1.071,1.071,0,0,0,1.132.7m-3.544,2.047a1.073,1.073,0,0,0-.04-1.332l-5.393-3.771c-.561-.327-1.4.063-1.881.888a1.526,1.526,0,0,0,.167,2.07l5.97,2.768a1.068,1.068,0,0,0,1.176-.629m7.087,0a1.1,1.1,0,0,0,1.177.636l5.97-2.776c.555-.327.638-1.243.169-2.068s-1.324-1.213-1.884-.892L193.52,9.127a1.1,1.1,0,0,0-.032,1.337m-3.55,6.126a1.079,1.079,0,0,1,1.137.7l.578,6.543c0,.648-.763,1.173-1.715,1.173s-1.715-.525-1.715-1.173l.583-6.543a1.071,1.071,0,0,1,1.132-.7m3.543-2.042c.305-.507.805-.778,1.177-.631l5.97,2.77c.555.321.638,1.245.169,2.07s-1.324,1.209-1.884.888l-5.394-3.772a1.084,1.084,0,0,1-.032-1.325m-7.094-.006a1.074,1.074,0,0,1-.04,1.332l-5.393,3.766c-.561.327-1.4-.064-1.881-.883a1.526,1.526,0,0,1,.167-2.07l5.97-2.77a1.066,1.066,0,0,1,1.176.626m15.982,4.529h.074c.1,0,.142.032.153.112a.555.555,0,0,0,.055.175h.192a.349.349,0,0,1-.05-.18.2.2,0,0,0-.142-.171v-.018a.175.175,0,0,0,.153-.167.221.221,0,0,0-.066-.158.52.52,0,0,0-.261-.055,1.21,1.21,0,0,0-.279.027v.723h.17Zm.005-.33.087-.011c.1,0,.157.047.157.114s-.074.109-.169.109h-.075Zm.109-.491a.734.734,0,1,0,.746.728.731.731,0,0,0-.746-.728m0,.147a.584.584,0,0,1,0,1.168.584.584,0,0,1-.005-1.168" transform="translate(-98.972)" fill="#fcb61a"/>
</svg>
