<svg id="author" xmlns="http://www.w3.org/2000/svg" width="50" height="50" viewBox="0 0 50 50">
  <path id="Path_96" data-name="Path 96" d="M170,331.616v.33a1.466,1.466,0,0,0,.179.7l2.93,5.371a1.465,1.465,0,0,0,2.572,0l2.93-5.371a1.466,1.466,0,0,0,.179-.7v-.33a12.2,12.2,0,0,1-8.789,0Z" transform="translate(-153.398 -299.232)" fill="#2f67a7"/>
  <path id="Path_97" data-name="Path 97" d="M138.555,124.444v-5.371h-2.091A11.1,11.1,0,0,1,128,115.16a1.465,1.465,0,0,0-2.5.465,5.149,5.149,0,0,1-4.86,3.448H120v5.371a9.277,9.277,0,0,0,18.555,0Z" transform="translate(-108.281 -103.448)" fill="#2f67a7"/>
  <path id="Path_98" data-name="Path 98" d="M102.6,12.7a2.222,2.222,0,0,0,2.095-1.486,4.394,4.394,0,0,1,7.5-1.394,8.161,8.161,0,0,0,6.229,2.88h3.068l.13-.1a7,7,0,0,0-4.2-12.6h-3.64a12.078,12.078,0,0,0-6.6,1.953H106.7A6.7,6.7,0,0,0,101.354,12.7Z" transform="translate(-90.234)" fill="#2f67a7"/>
  <path id="Path_99" data-name="Path 99" d="M32.91,342.739v-.7a4.369,4.369,0,0,1,.746-2.447l-5.349-1.337a4.409,4.409,0,0,1-.524,1.786l-2.93,5.371a4.395,4.395,0,0,1-7.716,0l-2.93-5.371a4.408,4.408,0,0,1-.524-1.786l-6.657,1.664a9.264,9.264,0,0,0-7.027,9v4.838a1.465,1.465,0,0,0,1.465,1.465H5.859v-3.613a1.465,1.465,0,0,1,2.93,0v3.613h21.98a5.821,5.821,0,0,1-.788-2.93v-3.748A7.2,7.2,0,0,1,32.91,342.739Z" transform="translate(0 -305.222)" fill="#2f67a7"/>
  <path id="Path_100" data-name="Path 100" d="M349.7,365.906v-2.441A1.465,1.465,0,0,0,348.23,362h-6.836a1.465,1.465,0,0,0-1.465,1.465v2.441a4.285,4.285,0,0,0-2.93,4.065v3.748a2.93,2.93,0,0,0,2.93,2.93H349.7a2.93,2.93,0,0,0,2.93-2.93v-3.748A4.284,4.284,0,0,0,349.7,365.906Z" transform="translate(-304.09 -326.648)" fill="#2f67a7"/>
  <path id="Path_101" data-name="Path 101" d="M407.757,97.391l.735-2.743a27.879,27.879,0,0,0,5.224-10.063A44.033,44.033,0,0,0,415.2,73.438a1.465,1.465,0,0,0-2.273-1.191c-.19.126-4.685,3.167-6.749,10.287a25.792,25.792,0,0,0-.518,11.373l-.934,3.485Z" transform="translate(-365.2 -64.97)" fill="#2f67a7"/>
</svg>
