<svg xmlns="http://www.w3.org/2000/svg" width="49.079" height="60" viewBox="0 0 49.079 60">
  <g id="binding" transform="translate(-46.597)">
    <path id="Line_255" data-name="Line 255" d="M-6.621-.282A.879.879,0,0,1-7.5-1.161v-5.46A.879.879,0,0,1-6.621-7.5a.879.879,0,0,1,.879.879v5.46A.879.879,0,0,1-6.621-.282Z" transform="translate(57.738 24.791)" fill="#fff"/>
    <path id="Line_256" data-name="Line 256" d="M-6.621-.282A.879.879,0,0,1-7.5-1.161v-5.46A.879.879,0,0,1-6.621-7.5a.879.879,0,0,1,.879.879v5.46A.879.879,0,0,1-6.621-.282Z" transform="translate(57.738 42.991)" fill="#fff"/>
    <path id="Path_124033" data-name="Path 124033" d="M120.465,197.825H78.542a.879.879,0,0,1-.879-.879V192.4a.879.879,0,0,1,1.758,0v3.671h41.044a.88.88,0,0,0,.879-.879V157a.879.879,0,0,1,1.758,0v38.189A2.64,2.64,0,0,1,120.465,197.825Z" transform="translate(-27.425 -137.825)" fill="#fff"/>
    <path id="Path_124034" data-name="Path 124034" d="M122.222,16.223a.879.879,0,0,1-.879-.879V2.637a.88.88,0,0,0-.879-.879H79.421V5.429a.879.879,0,0,1-1.758,0V.879A.879.879,0,0,1,78.542,0h41.923A2.64,2.64,0,0,1,123.1,2.637V15.345A.879.879,0,0,1,122.222,16.223Z" transform="translate(-27.425)" fill="#fff"/>
    <path id="Line_257" data-name="Line 257" d="M-6.621-.281A.879.879,0,0,1-7.5-1.16V-6.621A.879.879,0,0,1-6.621-7.5a.879.879,0,0,1,.879.879V-1.16A.879.879,0,0,1-6.621-.281Z" transform="translate(57.738 52.091)" fill="#fff"/>
    <path id="Line_258" data-name="Line 258" d="M-6.621-.281A.879.879,0,0,1-7.5-1.16V-6.621A.879.879,0,0,1-6.621-7.5a.879.879,0,0,1,.879.879V-1.16A.879.879,0,0,1-6.621-.281Z" transform="translate(57.738 33.891)" fill="#fff"/>
    <path id="Line_259" data-name="Line 259" d="M-6.621-.281A.879.879,0,0,1-7.5-1.16V-6.621A.879.879,0,0,1-6.621-7.5a.879.879,0,0,1,.879.879V-1.16A.879.879,0,0,1-6.621-.281Z" transform="translate(57.738 15.69)" fill="#fff"/>
    <path id="Path_124035" data-name="Path 124035" d="M185.313,77.478H156.192a.879.879,0,0,1-.879-.879V47.479a.879.879,0,0,1,.879-.879h7.185a.879.879,0,0,1,0,1.758h-6.306V75.72h27.363V48.358H167.208a.879.879,0,0,1,0-1.758h18.105a.879.879,0,0,1,.879.879V76.6A.879.879,0,0,1,185.313,77.478Z" transform="translate(-95.976 -41.139)" fill="#fff"/>
    <path id="Line_260" data-name="Line 260" d="M11.58-5.742h-18.2A.879.879,0,0,1-7.5-6.621.879.879,0,0,1-6.621-7.5h18.2a.879.879,0,0,1,.879.879A.879.879,0,0,1,11.58-5.742Z" transform="translate(72.298 47.541)" fill="#fff"/>
    <path id="Line_261" data-name="Line 261" d="M4.3-5.742H-6.621A.879.879,0,0,1-7.5-6.621.879.879,0,0,1-6.621-7.5H4.3a.879.879,0,0,1,.879.879A.879.879,0,0,1,4.3-5.742Z" transform="translate(75.938 51.182)" fill="#fff"/>
    <path id="Rectangle_13592" data-name="Rectangle 13592" d="M-6.621-7.5h3.656a.879.879,0,0,1,.879.879v3.656a.879.879,0,0,1-.879.879H-6.621A.879.879,0,0,1-7.5-2.966V-6.621A.879.879,0,0,1-6.621-7.5Zm2.777,1.758h-1.9v1.9h1.9Z" transform="translate(90.498 58.449)" fill="#fff"/>
    <g id="Group_52967" data-name="Group 52967" transform="translate(46.597 4.55)">
      <path id="Path_124036" data-name="Path 124036" d="M52.936,44.228H49.3a2.7,2.7,0,0,1,0-5.4h3.64a2.7,2.7,0,1,1,0,5.4Zm-3.64-3.64a.941.941,0,0,0,0,1.882h3.64a.941.941,0,0,0,0-1.882Z" transform="translate(-46.597 -38.83)" fill="#fff"/>
      <path id="Path_124037" data-name="Path 124037" d="M52.936,121.884H49.3a2.7,2.7,0,1,1,0-5.4h3.64a2.7,2.7,0,1,1,0,5.4Zm-3.64-3.64a.941.941,0,0,0,0,1.882h3.64a.941.941,0,0,0,0-1.882Z" transform="translate(-46.597 -107.386)" fill="#fff"/>
      <path id="Path_124038" data-name="Path 124038" d="M52.936,199.539H49.3a2.7,2.7,0,1,1,0-5.4h3.64a2.7,2.7,0,1,1,0,5.4ZM49.3,195.9a.941.941,0,0,0,0,1.882h3.64a.941.941,0,0,0,0-1.882Z" transform="translate(-46.597 -175.94)" fill="#fff"/>
      <path id="Path_124039" data-name="Path 124039" d="M52.936,277.195H49.3a2.7,2.7,0,0,1,0-5.4h3.64a2.7,2.7,0,1,1,0,5.4Zm-3.64-3.64a.941.941,0,0,0,0,1.882h3.64a.941.941,0,0,0,0-1.882Z" transform="translate(-46.597 -244.496)" fill="#fff"/>
      <path id="Path_124040" data-name="Path 124040" d="M52.936,354.851H49.3a2.7,2.7,0,0,1,0-5.4h3.64a2.7,2.7,0,0,1,0,5.4Zm-3.64-3.64a.941.941,0,0,0,0,1.882h3.64a.941.941,0,0,0,0-1.882Z" transform="translate(-46.597 -313.052)" fill="#fff"/>
      <path id="Path_124041" data-name="Path 124041" d="M52.936,432.506H49.3a2.7,2.7,0,0,1,0-5.4h3.64a2.7,2.7,0,1,1,0,5.4Zm-3.64-3.64a.941.941,0,0,0,0,1.882h3.64a.941.941,0,0,0,0-1.882Z" transform="translate(-46.597 -381.607)" fill="#fff"/>
    </g>
    <path id="Path_124042" data-name="Path 124042" d="M220.992,148.819h-3.641a.879.879,0,0,1,0-1.758h2.762v-5.523H203.671v5.523h2.761a.879.879,0,0,1,0,1.758h-3.64a.879.879,0,0,1-.879-.879v-7.281a.879.879,0,0,1,.879-.879h18.2a.879.879,0,0,1,.879.879v7.281A.879.879,0,0,1,220.992,148.819Z" transform="translate(-137.115 -123.4)" fill="#fff"/>
    <path id="Path_124043" data-name="Path 124043" d="M244.771,179.888h-4.392a.879.879,0,0,1,0-1.758h3.513v-5.522h-9.162v5.522h1.818a.879.879,0,0,1,0,1.758h-2.7a.879.879,0,0,1-.879-.879v-7.28a.879.879,0,0,1,.879-.879h10.92a.879.879,0,0,1,.879.879v7.28A.879.879,0,0,1,244.771,179.888Z" transform="translate(-164.535 -150.829)" fill="#fff"/>
    <path id="Rectangle_13593" data-name="Rectangle 13593" d="M-6.621-7.5H4.3a.879.879,0,0,1,.879.879v3.64A.879.879,0,0,1,4.3-2.1H-6.621A.879.879,0,0,1-7.5-2.981v-3.64A.879.879,0,0,1-6.621-7.5ZM3.42-5.742H-5.742V-3.86H3.42Z" transform="translate(75.938 20.241)" fill="#fff"/>
  </g>
</svg>
