<svg id="g3443" xmlns="http://www.w3.org/2000/svg" xmlns:xlink="http://www.w3.org/1999/xlink" width="59.311" height="59.311" viewBox="0 0 59.311 59.311">
  <defs>
    <clipPath id="clip-path">
      <path id="path3447" d="M0-682.665H59.311v59.311H0Z" transform="translate(0 682.665)" fill="#fff"/>
    </clipPath>
  </defs>
  <g id="g3445" clip-path="url(#clip-path)">
    <g id="g3451" transform="translate(4.914 18.027)">
      <path id="path3453" d="M-2.418-1.148H-7.7a2.3,2.3,0,0,1-2.3-2.3V-9.131A.869.869,0,0,1-9.131-10a.869.869,0,0,1,.869.869v5.685a.562.562,0,0,0,.561.561h5.283a.869.869,0,0,1,.869.869A.869.869,0,0,1-2.418-1.148Z" transform="translate(10 10)" fill="#fff"/>
    </g>
    <g id="g3455" transform="translate(42.861 4.603)">
      <path id="path3457" d="M.8-8.262H-9.131A.869.869,0,0,1-10-9.131.869.869,0,0,1-9.131-10H.8a.869.869,0,0,1,.869.869A.869.869,0,0,1,.8-8.262Z" transform="translate(10 10)" fill="#fff"/>
    </g>
    <g id="g3459" transform="translate(42.861 8.426)">
      <path id="path3461" d="M.8-8.262H-9.131A.869.869,0,0,1-10-9.131.869.869,0,0,1-9.131-10H.8a.869.869,0,0,1,.869.869A.869.869,0,0,1,.8-8.262Z" transform="translate(10 10)" fill="#fff"/>
    </g>
    <g id="g3463" transform="translate(6.872 51.814)">
      <path id="path3465" d="M-9.131-2.532A.869.869,0,0,1-10-3.4v-5.73A.869.869,0,0,1-9.131-10a.869.869,0,0,1,.869.869V-3.4A.869.869,0,0,1-9.131-2.532Z" transform="translate(10 10)" fill="#fff"/>
    </g>
    <g id="g3467" transform="translate(15.243 3.066)">
      <path id="path3469" d="M-61.813-10A13.191,13.191,0,0,1-48.645,1.884a.869.869,0,0,1-.22.67.869.869,0,0,1-.644.287l-9.057.007a9.781,9.781,0,0,1-9.129-9.5,3.892,3.892,0,0,1,.6-2.075.869.869,0,0,1,.416-.346A13.175,13.175,0,0,1-61.813-10Zm11.3,11.1a11.456,11.456,0,0,0-11.3-9.367,11.451,11.451,0,0,0-3.942.694,2.157,2.157,0,0,0-.2.913,8.019,8.019,0,0,0,7.464,7.769Z" transform="translate(67.694 10)" fill="#fff"/>
    </g>
    <g id="g3471" transform="translate(7.888 3.066)">
      <path id="path3473" d="M-192.476-311.424h-1.076a.869.869,0,0,1-.869-.869.869.869,0,0,1,.869-.869h1.076a5.209,5.209,0,0,0,3.708-1.536,5.209,5.209,0,0,0,1.536-3.708v-10.366a11.512,11.512,0,0,0-11.5-11.5,11.423,11.423,0,0,0-8.131,3.368,11.424,11.424,0,0,0-3.368,8.131V-318.4a5.249,5.249,0,0,0,5.243,5.243h1.1a.869.869,0,0,1,.869.869.869.869,0,0,1-.869.869h-1.1a6.989,6.989,0,0,1-6.981-6.98V-328.77a13.15,13.15,0,0,1,3.876-9.36,13.149,13.149,0,0,1,9.36-3.877A13.251,13.251,0,0,1-185.5-328.772v10.366a6.935,6.935,0,0,1-2.045,4.937A6.935,6.935,0,0,1-192.476-311.424Z" transform="translate(211.969 342.007)" fill="#fff"/>
    </g>
    <g id="g3475" transform="translate(29.165 21.001)">
      <path id="path3477" d="M-5.672-8.262H-9.131A.869.869,0,0,1-10-9.131.869.869,0,0,1-9.131-10h3.459a.869.869,0,0,1,.869.869A.869.869,0,0,1-5.672-8.262Z" transform="translate(10 10)" fill="#fff"/>
    </g>
    <g id="g3479" transform="translate(7.888 21.001)">
      <path id="path3481" d="M-5.666-8.262H-9.131A.869.869,0,0,1-10-9.131.869.869,0,0,1-9.131-10h3.465a.869.869,0,0,1,.869.869A.869.869,0,0,1-5.666-8.262Z" transform="translate(10 10)" fill="#fff"/>
    </g>
    <g id="g3483" transform="translate(8.006 14.168)">
      <path id="path3485" d="M-43.6-8.272h-3.311a.869.869,0,0,1-.869-.869.869.869,0,0,1,.869-.869H-43.6a.869.869,0,0,1,.869.864.869.869,0,0,1-.858.874L-43.6-8.5Z" transform="translate(47.777 10.009)" fill="#fff"/>
    </g>
    <g id="g3487" transform="translate(14.402 14.171)">
      <path id="path3489" d="M-3.246-138.518a11.133,11.133,0,0,1-6.469-3.006.869.869,0,0,1-.059-1.227.869.869,0,0,1,1.227-.059,9.626,9.626,0,0,0,5.3,2.555c2.309-.052,8.046-3.08,8.042-8.455l.01-6.117a.868.868,0,0,1,.87-.867.869.869,0,0,1,.867.87l-.01,6.114C6.537-142.13-.319-138.584-3.246-138.518Z" transform="translate(10 155.694)" fill="#fff"/>
    </g>
    <g id="g3491" transform="translate(11.288 9.351)">
      <path id="path3493" d="M-63.592,6.356a.869.869,0,0,1-.778-.48,9,9,0,0,1-.963-4.055l-.034-6.128a.869.869,0,0,1,.252-.617.869.869,0,0,1,.616-.256A3.95,3.95,0,0,0-60.556-9.13a.869.869,0,0,1,.868-.87.869.869,0,0,1,.87.868,5.692,5.692,0,0,1-4.806,5.62l.03,5.326A7.286,7.286,0,0,0-62.815,5.1.869.869,0,0,1-63.2,6.264.865.865,0,0,1-63.592,6.356Z" transform="translate(65.367 10)" fill="#fff"/>
    </g>
    <g id="g3495" transform="translate(11.627 23.574)">
      <path id="path3497" d="M-62.757-42.479h-3.475a2.5,2.5,0,0,1-2.5-2.5,2.5,2.5,0,0,1,2.5-2.5h3.475a2.5,2.5,0,0,1,2.5,2.5A2.5,2.5,0,0,1-62.757-42.479Zm-3.475-3.256a.76.76,0,0,0-.759.759.76.76,0,0,0,.759.759h3.475A.76.76,0,0,0-62-44.975a.76.76,0,0,0-.759-.759Z" transform="translate(68.728 47.472)" fill="#fff"/>
    </g>
    <g id="g3499" transform="translate(4.913 0.029)">
      <path id="path3501" d="M-300.359-228.678a.869.869,0,0,1-.869-.869.869.869,0,0,1,.869-.869,2.092,2.092,0,0,0,1.489-.617,2.092,2.092,0,0,0,.617-1.489v-2.656a14.49,14.49,0,0,0-14.473-14.472,14.379,14.379,0,0,0-10.234,4.24,14.379,14.379,0,0,0-4.239,10.235v2.654a2.109,2.109,0,0,0,2.106,2.106.869.869,0,0,1,.869.869.869.869,0,0,1-.869.869,3.849,3.849,0,0,1-3.844-3.843v-2.654a16.105,16.105,0,0,1,4.748-11.464,16.105,16.105,0,0,1,11.463-4.749,16.23,16.23,0,0,1,16.211,16.21v2.656a3.819,3.819,0,0,1-1.126,2.718A3.818,3.818,0,0,1-300.359-228.678Z" transform="translate(328.938 251.387)" fill="#fff"/>
    </g>
    <g id="g3503" transform="translate(38.079 0.029)">
      <path id="path3505" d="M-70.718,9.748a1.242,1.242,0,0,1-.384-.061,1.235,1.235,0,0,1-.855-1.178V4.944a.352.352,0,0,0-.26-.347,4.906,4.906,0,0,1-3.8-4.8V-5.073A4.932,4.932,0,0,1-71.086-10h1.677a.869.869,0,0,1,.869.869.869.869,0,0,1-.869.869h-1.677a3.193,3.193,0,0,0-3.189,3.189V-.2a3.175,3.175,0,0,0,2.455,3.1,2.078,2.078,0,0,1,1.6,2.038V6.974l2.268-3.118a2.1,2.1,0,0,1,1.7-.864h6.547A3.193,3.193,0,0,0-56.519-.2V-5.073a3.193,3.193,0,0,0-3.189-3.189H-65.4a.869.869,0,0,1-.869-.869A.869.869,0,0,1-65.4-10h5.689a4.932,4.932,0,0,1,4.927,4.927V-.2a4.932,4.932,0,0,1-4.927,4.927h-6.547a.362.362,0,0,0-.292.149l-3.171,4.36A1.235,1.235,0,0,1-70.718,9.748Z" transform="translate(76.013 10)" fill="#fff"/>
    </g>
    <g id="g3507" transform="translate(25.304 27.504)">
      <path id="path3509" d="M-90.8-94.156a.87.87,0,0,1-.231-.031l-5.316-1.459a4.215,4.215,0,0,1-3.091-4.05l0-3.5a.869.869,0,0,1,.868-.87.87.87,0,0,1,.87.868l0,3.5a2.472,2.472,0,0,0,1.813,2.376l5.316,1.459a.869.869,0,0,1,.608,1.068A.869.869,0,0,1-90.8-94.156Z" transform="translate(99.442 104.066)" fill="#fff"/>
    </g>
    <g id="g3511" transform="translate(7.445 27.513)">
      <path id="path3513" d="M-98.706-.07a.869.869,0,0,1-.837-.638.869.869,0,0,1,.606-1.069l5.34-1.476A2.472,2.472,0,0,0-91.789-5.63l0-3.5a.869.869,0,0,1,.868-.87.869.869,0,0,1,.87.868l0,3.5a4.214,4.214,0,0,1-3.083,4.055L-98.474-.1A.869.869,0,0,1-98.706-.07Z" transform="translate(99.574 10)" fill="#fff"/>
    </g>
    <g id="g3515" transform="translate(29.629 35.676)">
      <path id="path3517" d="M-115.986-50.712a.869.869,0,0,1-.77-.465,5.81,5.81,0,0,0-3.594-2.894l-1.958-.537a15.71,15.71,0,0,1-3.3,3.7.869.869,0,0,1-1.223-.122.869.869,0,0,1,.122-1.223,13.972,13.972,0,0,0,3.245-3.8.869.869,0,0,1,.981-.4l2.588.711a7.554,7.554,0,0,1,4.672,3.762.869.869,0,0,1-.366,1.173A.865.865,0,0,1-115.986-50.712Z" transform="translate(127.023 56.489)" fill="#fff"/>
    </g>
    <g id="g3519" transform="translate(0 35.705)">
      <path id="path3521" d="M-249.508-70.8a2.951,2.951,0,0,1-2.948-2.946l-.011-12.631a7.545,7.545,0,0,1,5.521-7.26l2.562-.708a.869.869,0,0,1,.981.4,14.017,14.017,0,0,0,12.056,6.924c.258,0,.513-.009.767-.023a.869.869,0,0,1,.915.82.869.869,0,0,1-.82.915c-.285.016-.572.025-.862.025a15.763,15.763,0,0,1-13.2-7.212l-1.932.534a5.8,5.8,0,0,0-4.246,5.584l.011,12.631a1.212,1.212,0,0,0,1.212,1.209l18.139-.016a.87.87,0,0,1,.87.868.869.869,0,0,1-.868.87l-18.139.016Z" transform="translate(252.467 94.374)" fill="#fff"/>
    </g>
    <g id="g3523" transform="translate(18.801 54.255)">
      <path id="path3525" d="M-314.119-42.833h-27.375a2.516,2.516,0,0,1-2.513-2.513,2.516,2.516,0,0,1,2.513-2.514h27.375a2.516,2.516,0,0,1,2.513,2.514A2.516,2.516,0,0,1-314.119-42.833Zm-27.375-3.289a.777.777,0,0,0-.776.776.777.777,0,0,0,.776.776h27.375a.777.777,0,0,0,.776-.776.777.777,0,0,0-.776-.776Z" transform="translate(344.007 47.86)" fill="#fff"/>
    </g>
    <g id="g3527" transform="translate(21.066 50.125)">
      <path id="path3529" d="M-9.131-4.133A.869.869,0,0,1-10-5V-9.131A.869.869,0,0,1-9.131-10a.869.869,0,0,1,.869.869V-5A.869.869,0,0,1-9.131-4.133Z" transform="translate(10 10)" fill="#fff"/>
    </g>
    <g id="g3531" transform="translate(21.066 39.715)">
      <path id="path3533" d="M-283.8-161.072a.869.869,0,0,1-.869-.869v-12.932a.739.739,0,0,0-.738-.739h-22.919a.739.739,0,0,0-.738.739v4.745a.869.869,0,0,1-.869.869.869.869,0,0,1-.869-.869v-4.745a2.479,2.479,0,0,1,2.476-2.476h22.919a2.479,2.479,0,0,1,2.476,2.476v12.932A.869.869,0,0,1-283.8-161.072Z" transform="translate(310.802 177.349)" fill="#fff"/>
    </g>
  </g>
</svg>
