<svg id="cup-of-hot-chocolate" xmlns="http://www.w3.org/2000/svg" width="48.155" height="50" viewBox="0 0 48.155 50">
  <g id="Group_31" data-name="Group 31" transform="translate(0 0)">
    <path id="Path_102" data-name="Path 102" d="M37.109,39.912c8.276-.333,11.955-4.1,11.955-8.71,0-4-2.779-7.374-8.934-8.408.027-1.489.029-2.926.029-4.267H.909c0,8.77.01,21.508,7.889,27.592-4.781.366-7.889.949-7.889,1.6,0,1.11,8.787,2.008,19.626,2.008s19.625-.9,19.625-2.008c0-.655-3.107-1.239-7.888-1.6A16.566,16.566,0,0,0,37.109,39.912Zm2.875-13.3c3.453.8,4.07,2.494,4.031,4.686-.044,2.49-.765,4.175-5.48,4.755A45.379,45.379,0,0,0,39.984,26.608ZM5.647,21.571h6.136c-2.75,8.116,1.89,20.958,1.889,20.958C3.64,34.84,5.647,21.571,5.647,21.571Z" transform="translate(-0.909 0.269)" fill="#2f67a7"/>
    <path id="Path_103" data-name="Path 103" d="M23.452,13.506C24.233,6.437,39.84,9.974,36.587.8c-.5-1.4-2.744-.8-2.242.618,1.426,4.024-3.993,4.514-6.753,5.436-3.314,1.108-6.058,2.96-6.466,6.656C20.963,15,23.29,14.979,23.452,13.506Z" transform="translate(-0.615 0)" fill="#2f67a7"/>
    <path id="Path_104" data-name="Path 104" d="M34.437,8.526c-3.044.717-5.825,2.021-6.774,5.221a1.163,1.163,0,0,0,2.242.618c1.047-3.534,5.688-3.592,8.652-4.453,3.183-.924,5-3.129,4.566-6.513-.191-1.466-2.516-1.484-2.325,0C41.326,7.491,37.56,7.789,34.437,8.526Z" transform="translate(-0.521 0.034)" fill="#2f67a7"/>
  </g>
</svg>
