<svg xmlns="http://www.w3.org/2000/svg" xmlns:xlink="http://www.w3.org/1999/xlink" width="60.001" height="60" viewBox="0 0 60.001 60">
  <defs>
    <clipPath id="clip-path">
      <path id="path3003" d="M0-682.665H21.4v21.4H0Z" transform="translate(0 682.665)" fill="#fff"/>
    </clipPath>
  </defs>
  <g id="Group_52970" data-name="Group 52970" transform="translate(-1336 -9124)">
    <g id="product" transform="translate(1324.207 9112.199)">
      <path id="Path_124033" data-name="Path 124033" d="M67.727,37.719a4.063,4.063,0,0,0-3.981,3.22H58.3A16.446,16.446,0,0,0,54.012,30.7l3.863-3.856a4.043,4.043,0,1,0-1.2-1.228L52.789,29.5A16.46,16.46,0,0,0,42.53,25.316V19.864a4.065,4.065,0,1,0-1.72-.053v5.518A16.465,16.465,0,0,0,30.684,29.6l-3.86-3.86a4.064,4.064,0,1,0-1.243,1.189l3.893,3.879a16.43,16.43,0,0,0-4.191,10.254h-5.42a4.121,4.121,0,0,0-4-3.343,4.065,4.065,0,1,0,0,8.131,3.989,3.989,0,0,0,3.94-3.067h5.5A16.369,16.369,0,0,0,29.548,52.9L25.71,56.745a4.1,4.1,0,1,0,1.2,1.242l3.86-3.86a16.462,16.462,0,0,0,10.165,4.2v5.428a4.067,4.067,0,1,0,1.72,0V58.331a16.464,16.464,0,0,0,10.237-4.268L56.73,57.9A4.068,4.068,0,1,0,57.957,56.7L54.1,52.829a16.4,16.4,0,0,0,4.2-10.17h5.461a4.065,4.065,0,1,0,3.968-4.94ZM58.471,21.8A2.347,2.347,0,1,1,61.79,25.12h0A2.347,2.347,0,1,1,58.471,21.8ZM25.114,25.12a2.347,2.347,0,1,1,0-3.319h0A2.346,2.346,0,0,1,25.114,25.12ZM15.858,44.146A2.347,2.347,0,1,1,18.205,41.8a2.347,2.347,0,0,1-2.347,2.347ZM25.114,61.8a2.347,2.347,0,1,1-3.319-3.319h0a2.342,2.342,0,0,1,3.229-.082.843.843,0,0,0,.239.246,2.346,2.346,0,0,1-.148,3.156Zm33.357-3.319a2.347,2.347,0,1,1,0,3.319h0A2.346,2.346,0,0,1,58.471,58.478ZM39.445,15.865a2.347,2.347,0,1,1,2.347,2.347A2.347,2.347,0,0,1,39.445,15.865ZM44.14,67.733a2.347,2.347,0,1,1-2.52-2.338.865.865,0,0,0,.346,0A2.349,2.349,0,0,1,44.14,67.733Zm-2.347-11.1A14.807,14.807,0,1,1,56.6,41.826,14.807,14.807,0,0,1,41.793,56.633ZM67.727,44.146A2.347,2.347,0,1,1,70.074,41.8,2.347,2.347,0,0,1,67.727,44.146Z" fill="#fff"/>
    </g>
    <g id="g2997" transform="translate(1355.299 9826.463)">
      <g id="g2999" transform="translate(0 -682.665)">
        <g id="g3001" clip-path="url(#clip-path)">
          <g id="g3007" transform="translate(4.201 -0.157)">
            <path id="path3009" d="M-200.85-219.217a.47.47,0,0,1-.466-.415c-.02-.168-.528-3.9-5.093-5.986v1a.47.47,0,0,1-.47.47.47.47,0,0,1-.47-.47v-1.714a.47.47,0,0,1,.205-.388.47.47,0,0,1,.436-.05c5.71,2.23,6.3,6.83,6.327,7.024a.47.47,0,0,1-.413.521A.478.478,0,0,1-200.85-219.217Z" transform="translate(207.35 226.798)" fill="#fff"/>
          </g>
          <g id="g3011" transform="translate(10.231 -0.157)">
            <path id="path3013" d="M-14.531-219.218a.473.473,0,0,1-.056,0,.47.47,0,0,1-.412-.52c.023-.195.617-4.794,6.327-7.024a.47.47,0,0,1,.436.05.47.47,0,0,1,.205.388v1.714a.47.47,0,0,1-.47.47.47.47,0,0,1-.47-.47v-1.005c-4.568,2.088-5.073,5.822-5.093,5.986A.471.471,0,0,1-14.531-219.218Z" transform="translate(15.001 226.798)" fill="#fff"/>
          </g>
          <g id="g3015" transform="translate(0.98 0.862)">
            <path id="path3017" d="M-158.472-56.3a.468.468,0,0,1-.219-.054,16.373,16.373,0,0,0-3.15-1.26l-.955.97a.47.47,0,0,1-.665.005.47.47,0,0,1-.005-.665l1.145-1.164a.47.47,0,0,1,.44-.129,16.479,16.479,0,0,1,3.628,1.41.47.47,0,0,1,.2.635A.47.47,0,0,1-158.472-56.3Z" transform="translate(163.601 58.61)" fill="#fff"/>
          </g>
          <g id="g3019" transform="translate(7.343 3.28)">
            <path id="path3021" d="M-105.806-113.044a.47.47,0,0,1-.411-.241,9.574,9.574,0,0,0-2.819-3.052.47.47,0,0,1-.107-.656.47.47,0,0,1,.656-.107,10.5,10.5,0,0,1,3.09,3.356.47.47,0,0,1-.181.64A.468.468,0,0,1-105.806-113.044Z" transform="translate(109.232 117.189)" fill="#fff"/>
          </g>
          <g id="g3023" transform="translate(10.165 0.862)">
            <path id="path3025" d="M-14.533-187.742a.468.468,0,0,1-.229-.06.47.47,0,0,1-.181-.64c2.48-4.431,8.234-5.794,8.478-5.85a.47.47,0,0,1,.44.129L-4.879-193a.47.47,0,0,1-.005.665.47.47,0,0,1-.665-.005l-.954-.97c-1.11.31-5.622,1.761-7.618,5.327A.47.47,0,0,1-14.533-187.742Z" transform="translate(15.003 194.304)" fill="#fff"/>
          </g>
          <g id="g3027" transform="translate(8.824 6.484)">
            <path id="path3029" d="M-88.577-450.79h-1.979a.889.889,0,0,1-.888-.888v-13.3a.889.889,0,0,1,.888-.888h1.979a.889.889,0,0,1,.888.888v13.3A.889.889,0,0,1-88.577-450.79Zm-1.926-.941h1.874v-13.2H-90.5Z" transform="translate(91.444 465.867)" fill="#fff"/>
          </g>
          <path id="path3031" d="M284.73-427.022h-2.815a.47.47,0,0,1-.47-.47v-1.393a.47.47,0,0,1,.47-.47h2.815a.47.47,0,0,1,.47.47v1.393A.47.47,0,0,1,284.73-427.022Zm-2.344-.941h1.874v-.453h-1.874Z" transform="translate(-272.621 437.298)" fill="#fff"/>
          <path id="path3033" d="M284.73-113.622h-2.815a.47.47,0,0,1-.47-.47v-1.393a.47.47,0,0,1,.47-.47h2.815a.47.47,0,0,1,.47.47v1.393A.47.47,0,0,1,284.73-113.622Zm-2.344-.941h1.874v-.453h-1.874Z" transform="translate(-272.621 133.724)" fill="#fff"/>
          <g id="g3035" transform="translate(10.231 11.67)">
            <path id="path3037" d="M-14.53-10.3a.47.47,0,0,1-.47-.47V-14.53a.47.47,0,0,1,.47-.47.47.47,0,0,1,.47.47v3.762A.47.47,0,0,1-14.53-10.3Z" transform="translate(15 15)" fill="#fff"/>
          </g>
          <g id="g3039" transform="translate(11.639 1.763)">
            <path id="path3041" d="M-298.555-375.508a.886.886,0,0,1-.448-.123.88.88,0,0,1-.44-.767v-13.177a.889.889,0,0,1,.453-.774l8.082-4.546a.88.88,0,0,1,.884.007.88.88,0,0,1,.44.767v9.488a.47.47,0,0,1-.47.47.47.47,0,0,1-.47-.47v-9.4l-7.977,4.487v13.057l7.977-4.487v-1.651a.47.47,0,0,1,.47-.47.47.47,0,0,1,.47.47v1.682a.889.889,0,0,1-.453.774l-8.082,4.546A.887.887,0,0,1-298.555-375.508Z" transform="translate(299.443 395.01)" fill="#fff"/>
          </g>
          <g id="g3043" transform="translate(-0.094 1.763)">
            <path id="path3045" d="M-270.6-585.744a.889.889,0,0,1-.435-.115l-8.082-4.546a.889.889,0,0,1-.453-.774v-13.177a.89.89,0,0,1,.889-.889.89.89,0,0,1,.435.115l8.082,4.546a.89.89,0,0,1,.453.774v13.177A.89.89,0,0,1-270.6-585.744Zm-8.029-5.466,7.978,4.487v-13.057l-7.978-4.487Z" transform="translate(279.574 605.245)" fill="#fff"/>
          </g>
          <g id="g3047" transform="translate(13.171 5.277)">
            <path id="path3049" d="M-195.35-79.468a.47.47,0,0,1,.236.064.47.47,0,0,1,.234.407v2.021a.47.47,0,0,1-.237.408l-5.853,3.344a.47.47,0,0,1-.469,0,.47.47,0,0,1-.234-.407v-2.021a.47.47,0,0,1,.237-.408l5.853-3.344A.47.47,0,0,1-195.35-79.468Zm-.47,2.219v-.938l-4.912,2.807v.938Z" transform="translate(201.673 79.468)" fill="#fff"/>
          </g>
        </g>
      </g>
    </g>
  </g>
</svg>
