<svg xmlns="http://www.w3.org/2000/svg" width="62.957" height="60" viewBox="0 0 62.957 60">
  <path id="writing" d="M71.715,37.738c0-.177,0-.355,0-.533.007-.39.013-.793-.02-1.214-.442-5.567-3.377-7.442-5.756-7.355a5.722,5.722,0,0,0-4.2,2.313,9.191,9.191,0,0,0-1.831,5.708L59.7,70.809a.892.892,0,0,0,.124.459l5.253,8.894a.892.892,0,0,0,.768.438h.006a.892.892,0,0,0,.768-.449l5.222-9.136a.893.893,0,0,0,.118-.449Zm-10.026.956a10.932,10.932,0,0,1,3.161-.5l.05,30.721a13.315,13.315,0,0,0-3.407.444Zm5,30.283-.05-30.738a20.622,20.622,0,0,1,3.3.538l.226,30.76a23.182,23.182,0,0,0-3.48-.559ZM66.01,30.418c2.125-.077,3.626,2.112,3.913,5.713.021.264.022.533.018.812a17.756,17.756,0,0,0-8.238-.116v-.16c.024-3.814,2.209-6.173,4.307-6.249Zm-.178,47.515L61.807,71.12a16,16,0,0,1,7.846.127ZM41.728,25.5a.892.892,0,0,0-.659-.291h-.892l-3.931-4.314a.892.892,0,0,0-.659-.291H12.821A3.976,3.976,0,0,0,9,24.707v46.2a3.976,3.976,0,0,0,3.821,4.106h1.662v.5A3.976,3.976,0,0,0,18.3,79.623H52.578a3.98,3.98,0,0,0,3.821-4.1V41.942a.892.892,0,0,0-.233-.6ZM53.487,41.05H42.008l-.04-12.64ZM12.821,73.233a2.2,2.2,0,0,1-2.037-2.322v-46.2a2.2,2.2,0,0,1,2.037-2.322H35.193l2.571,2.821H18.3a3.976,3.976,0,0,0-3.821,4.106V73.233Zm39.757,4.605H18.3a2.2,2.2,0,0,1-2.037-2.322v-46.2A2.2,2.2,0,0,1,18.3,26.99H40.18l.047,14.954a.892.892,0,0,0,.892.889h13.5V75.515a2.2,2.2,0,0,1-2.036,2.324ZM43.416,58.079H27.466a3,3,0,0,0-2.995,2.995V71.892a3,3,0,0,0,2.995,2.994h15.95a3,3,0,0,0,2.994-2.994V61.074A3,3,0,0,0,43.416,58.079Zm1.21,13.812a1.211,1.211,0,0,1-1.21,1.21H27.466a1.211,1.211,0,0,1-1.211-1.21V61.074a1.211,1.211,0,0,1,1.211-1.211h15.95a1.211,1.211,0,0,1,1.21,1.211ZM19.842,32.551a.892.892,0,0,1,.892-.892H33.119a.892.892,0,1,1,0,1.784H20.734a.892.892,0,0,1-.892-.892Zm0,7.018a.892.892,0,0,1,.892-.892H33.119a.892.892,0,1,1,0,1.784H20.734a.892.892,0,0,1-.892-.892Zm0,7.018a.892.892,0,0,1,.892-.892H49.493a.892.892,0,1,1,0,1.784H20.734a.892.892,0,0,1-.892-.893ZM51.349,53.6a.892.892,0,0,1-.892.892H20.734a.892.892,0,1,1,0-1.784H50.457a.892.892,0,0,1,.892.892Z" transform="translate(-9 -20.601)" fill="#fff"/>
</svg>
