<svg xmlns="http://www.w3.org/2000/svg" width="679.244" height="142.777" viewBox="0 0 679.244 142.777">
  <g id="Amazon_Kindle" data-name="Amazon Kindle" transform="translate(-64.3 -157)" opacity="0.25">
    <path id="Path_123984" data-name="Path 123984" d="M281.861,243.247c-21.977,16.155-53.7,24.742-81.067,24.742-38.423,0-72.917-14.118-99.114-37.841-2.038-1.892-.291-4.366,2.183-2.911,28.235,16.446,63.165,26.343,99.114,26.343a199.32,199.32,0,0,0,75.682-15.427C282.443,236.552,285.5,240.482,281.861,243.247Z" transform="translate(16.616 31.788)" fill="#fff" fill-rule="evenodd"/>
    <path id="Path_123985" data-name="Path 123985" d="M240.09,233.992c-2.765-3.638-18.484-1.747-25.615-.873-2.183.291-2.474-1.6-.582-2.911,12.517-8.878,33.184-6.258,35.512-3.348,2.474,2.911-.582,23.578-12.371,33.475-1.747,1.455-3.493.728-2.765-1.31C237.034,252.476,242.855,237.631,240.09,233.992Z" transform="translate(67.556 30.563)" fill="#fff" fill-rule="evenodd"/>
    <path id="Path_123986" data-name="Path 123986" d="M214.838,188.87v-8.587a2.143,2.143,0,0,1,2.183-2.183h38.423a2.143,2.143,0,0,1,2.183,2.183v7.423c0,1.164-1.019,2.911-2.911,5.385l-19.794,28.381c7.423-.146,15.136.873,21.977,4.657a4.044,4.044,0,0,1,2.038,3.347v9.169c0,1.31-1.31,2.765-2.765,1.892a43.973,43.973,0,0,0-40.606.146c-1.31.728-2.765-.728-2.765-2.038v-8.732a9.566,9.566,0,0,1,1.455-5.822l23-33.038H217.166A2.267,2.267,0,0,1,214.838,188.87Z" transform="translate(67.63 9.609)" fill="#fff" fill-rule="evenodd"/>
    <path id="Path_123987" data-name="Path 123987" d="M122.281,242.748H110.638a2.082,2.082,0,0,1-2.038-2.038V180.748a2.238,2.238,0,0,1,2.183-2.183H121.7a2.212,2.212,0,0,1,2.183,2.038v7.859h.291c2.765-7.568,8.15-11.061,15.427-11.061s11.934,3.493,15.136,11.061c2.765-7.568,9.315-11.061,16.155-11.061a16.721,16.721,0,0,1,13.535,6.549c3.639,5.094,2.911,12.371,2.911,18.775v37.841a2.238,2.238,0,0,1-2.183,2.183H173.512a2.212,2.212,0,0,1-2.038-2.183V208.837c0-2.474.146-8.878-.291-11.207-.873-4.075-3.493-5.24-6.84-5.24a7.776,7.776,0,0,0-6.986,4.948c-1.164,3.056-1.019,8-1.019,11.5v31.728a2.238,2.238,0,0,1-2.183,2.183H142.511a2.212,2.212,0,0,1-2.038-2.183V208.837c0-6.695,1.019-16.592-7.132-16.592-8.441,0-8,9.606-8,16.592v31.728C124.464,241.73,123.445,242.748,122.281,242.748Z" transform="translate(20.175 9.291)" fill="#fff" fill-rule="evenodd"/>
    <path id="Path_123988" data-name="Path 123988" d="M274.643,177.3c17.32,0,26.78,14.845,26.78,33.766,0,18.338-10.333,32.747-26.78,32.747-17.028,0-26.343-14.845-26.343-33.475C248.3,191.854,257.76,177.3,274.643,177.3Zm.146,12.225c-8.587,0-9.169,11.789-9.169,19.066s-.146,23,9.024,23c9.024,0,9.46-12.662,9.46-20.376,0-5.094-.146-11.061-1.747-15.864C281.047,191.272,278.427,189.525,274.789,189.525Z" transform="translate(83.797 9.245)" fill="#fff" fill-rule="evenodd"/>
    <path id="Path_123989" data-name="Path 123989" d="M304.481,242.7H292.837a2.212,2.212,0,0,1-2.037-2.183V180.556a2.088,2.088,0,0,1,2.183-1.892h10.77a2.041,2.041,0,0,1,2.038,1.746v9.169h.291c3.2-8.15,7.859-12.08,15.864-12.08,5.24,0,10.333,1.892,13.681,7.132,3.056,4.8,3.056,12.808,3.056,18.629v37.55A2.2,2.2,0,0,1,336.5,242.7H324.857a2.173,2.173,0,0,1-2.038-1.892v-32.6c0-6.549.728-16.155-7.277-16.155a7.632,7.632,0,0,0-6.695,4.8c-1.6,3.639-1.892,7.277-1.892,11.352v32.31A2.516,2.516,0,0,1,304.481,242.7Z" transform="translate(103.152 9.336)" fill="#fff" fill-rule="evenodd"/>
    <path id="Path_123990" data-name="Path 123990" d="M203.948,214.259c0,4.512.146,8.3-2.183,12.371-1.892,3.347-4.8,5.385-8.15,5.385-4.512,0-7.132-3.347-7.132-8.441,0-9.9,8.878-11.789,17.32-11.789v2.474Zm11.789,28.526a2.417,2.417,0,0,1-2.765.291c-3.93-3.2-4.512-4.657-6.695-7.859-6.4,6.549-10.916,8.441-19.212,8.441-9.9,0-17.465-6.113-17.465-18.193,0-9.46,5.094-16.01,12.517-19.066,6.4-2.765,15.136-3.347,21.977-4.075v-1.455c0-2.765.146-6.113-1.455-8.441-1.455-2.183-4.221-3.056-6.549-3.056-4.512,0-8.441,2.329-9.46,6.986a2.64,2.64,0,0,1-2.038,2.183l-11.352-1.164a2.01,2.01,0,0,1-1.746-2.474c2.62-13.681,14.991-17.9,26.2-17.9,5.676,0,13.1,1.455,17.611,5.822,5.676,5.385,5.094,12.371,5.094,20.085V221.1c0,5.531,2.329,7.859,4.366,10.77.728,1.019.873,2.329,0,3.056-2.474,2.038-6.7,5.676-9.024,7.859Z" transform="translate(47.956 9.108)" fill="#fff" fill-rule="evenodd"/>
    <path id="Path_123991" data-name="Path 123991" d="M98.648,214.259c0,4.512.146,8.3-2.183,12.371-1.892,3.347-4.8,5.385-8.15,5.385-4.512,0-7.132-3.347-7.132-8.441,0-9.9,8.878-11.789,17.32-11.789v2.474Zm11.789,28.526a2.417,2.417,0,0,1-2.765.291c-3.93-3.2-4.512-4.657-6.695-7.859-6.4,6.549-10.916,8.441-19.212,8.441-9.9,0-17.465-6.113-17.465-18.193,0-9.46,5.094-16.01,12.517-19.066,6.4-2.765,15.136-3.347,21.977-4.075v-1.455c0-2.765.291-6.113-1.455-8.441-1.455-2.183-4.221-3.056-6.549-3.056-4.512,0-8.441,2.329-9.46,6.986a2.64,2.64,0,0,1-2.038,2.183l-11.352-1.164a2.01,2.01,0,0,1-1.746-2.474c2.62-13.681,14.991-17.9,26.2-17.9,5.676,0,13.1,1.455,17.611,5.822,5.676,5.385,5.094,12.371,5.094,20.085V221.1c0,5.531,2.329,7.859,4.366,10.77.728,1.019.873,2.329,0,3.056-2.329,2.038-6.549,5.676-9.024,7.859Z" transform="translate(0 9.108)" fill="#fff" fill-rule="evenodd"/>
    <path id="Path_123992" data-name="Path 123992" d="M372.513,252.039,345.3,219h-.146v33.038H335.4V157h9.751v54h.146l23.287-22.413h12.808l-27.944,25.906,31.583,37.55H372.513Z" transform="translate(123.464 0)" fill="#fff"/>
    <path id="Path_123993" data-name="Path 123993" d="M379.44,173.781a6.84,6.84,0,1,1,6.84-6.84A6.833,6.833,0,0,1,379.44,173.781Zm-4.8,76.846V187.171h9.751v63.456Z" transform="translate(140.406 1.412)" fill="#fff"/>
    <path id="Path_123994" data-name="Path 123994" d="M431.261,242.657V203.652c0-7.859-1.31-16.737-11.061-16.737-7.714,0-14.845,5.531-19.648,9.606v46.137H390.8V179.2h8l1.31,7.714c6.986-5.385,13.826-9.315,22.7-9.315,9.169,0,18.193,6.549,18.193,22.413v42.644h-9.751Z" transform="translate(148.694 9.382)" fill="#fff"/>
    <path id="Path_123995" data-name="Path 123995" d="M465.2,253.349c-17.756,0-32.6-10.333-32.6-32.165,0-19.794,14.263-34.2,32.747-34.2A46.314,46.314,0,0,1,475.68,188V157h9.751v91.837C481.5,251.02,474.079,253.349,465.2,253.349ZM475.68,197.17a25.814,25.814,0,0,0-9.751-1.6c-12.517,0-23.287,9.751-23.287,25.033,0,14.409,7.859,24.6,24.451,24.6a24.61,24.61,0,0,0,8.733-1.6V197.17Z" transform="translate(167.731 0)" fill="#fff"/>
    <path id="Path_123996" data-name="Path 123996" d="M489.861,253.349c-7.714,0-11.061-4.948-11.061-11.643V157h9.751v80.194c0,5.967,1.455,7.277,5.24,7.277a11.437,11.437,0,0,0,3.347-.437l1.164,7.132A17.376,17.376,0,0,1,489.861,253.349Z" transform="translate(188.771 0)" fill="#fff"/>
    <path id="Path_123997" data-name="Path 123997" d="M506.379,212.53c0,12.08,6.986,23,20.667,23a31.141,31.141,0,0,0,15.427-4.657l3.056,6.986a38.718,38.718,0,0,1-19.648,6.113c-20.23,0-29.982-16.3-29.982-34.348,0-18.338,10.479-32.019,25.761-32.019,16.3,0,25.324,12.953,25.324,32.747v2.329H506.379ZM521.807,185.9c-9.46,0-15.282,8.3-15.282,18.338h29.982C536.361,195.356,531.412,185.9,521.807,185.9Z" transform="translate(196.559 9.382)" fill="#fff"/>
  </g>
</svg>
