<svg xmlns="http://www.w3.org/2000/svg" xmlns:xlink="http://www.w3.org/1999/xlink" width="1316" height="501" viewBox="0 0 1316 501">
  <defs>
    <clipPath id="clip-path">
      <rect id="Rectangle_13622" data-name="Rectangle 13622" width="1316" height="501" rx="20" transform="translate(142 3706)" fill="#d00202"/>
    </clipPath>
  </defs>
  <g id="Group_7250" data-name="Group 7250" transform="translate(-142 -2868)">
    <rect id="Rectangle_13617" data-name="Rectangle 13617" width="1316" height="499" rx="20" transform="translate(142 2869)" fill="#4d93e2"/>
    <g id="Mask_Group_14" data-name="Mask Group 14" transform="translate(0 -838)" opacity="0.3" clip-path="url(#clip-path)">
      <g id="Group_7248" data-name="Group 7248" transform="translate(-776.906 3387.854)" opacity="0.4">
        <path id="Path_116" data-name="Path 116" d="M2238.336,783.1c-40.235,21.442-80.491,44.829-119.86,69.561-38.867,24.414-77.491,50.53-115.023,77.723-37.661,27.282-74.9,56.142-110.913,85.922-36.688,30.335-72.862,62.257-107.747,95.066q-27.089,25.477-53.183,51.784H1732q25.985-26.2,53-51.615,6.614-6.225,13.234-12.349c171.008-158.275,384.069-298.764,592.22-385.176v-2.774q-13.474,5.537-26.934,11.36C2321.842,740.653,2279.782,761.015,2238.336,783.1Z" transform="translate(-117.551 -136.372)" fill="#fff"/>
        <path id="Path_117" data-name="Path 117" d="M2508.978,1214.207c-11.022-9.5-24.385-16.825-39.627-21.845-14.335-4.723-30.4-7.339-47.7-7.859a268.334,268.334,0,0,0-52.915,4.089,405.4,405.4,0,0,0-56.222,14.108,561.554,561.554,0,0,0-58.042,22.63c-19.377,8.769-39.116,18.878-58.718,30.048-19.564,11.15-39.231,23.495-58.51,36.712-19.1,13.1-38.091,27.238-56.516,42.067h.841c135.859-108.414,293.85-171.718,386.91-140.97,19.835,6.553,35.88,16.76,48.145,30.063v-1.7A99.294,99.294,0,0,0,2508.978,1214.207Z" transform="translate(-243.722 -307.371)" fill="#fff"/>
        <path id="Path_118" data-name="Path 118" d="M2381.616,1120.939a492.663,492.663,0,0,0-64.778,17.382,670.247,670.247,0,0,0-66.233,26.66c-22.005,10.194-44.37,21.854-66.53,34.654-22.087,12.759-44.258,26.818-65.965,41.813-21.919,15.138-43.687,31.454-64.777,48.538q-11.448,9.272-22.746,18.947h.578c69.281-59.2,144.664-108.81,219.2-143.326,95.436-44.2,183.558-60.955,248.138-43.256V1121.3c-16.787-4.49-35.34-6.713-55.138-6.69A332.049,332.049,0,0,0,2381.616,1120.939Z" transform="translate(-225.601 -282.147)" fill="#fff" stroke="#fff" stroke-width="2"/>
        <path id="Path_119" data-name="Path 119" d="M2469.532,1034.978a415.019,415.019,0,0,0-72.146,9.361,602.114,602.114,0,0,0-74.622,21.442,803.269,803.269,0,0,0-75.488,31.422c-24.94,11.85-50.223,25.286-75.222,39.94-24.878,14.585-49.807,30.569-74.18,47.543-24.588,17.122-48.988,35.516-72.62,54.726-16.081,13.07-31.988,26.683-47.574,40.675h.518c83.633-75.029,176.505-138.425,268.853-182.284,84.232-40.005,164.539-62.116,232.334-62.215v-.8Q2474.5,1034.811,2469.532,1034.978Z" transform="translate(-206.48 -253.301)" fill="#fff" stroke="#fff" stroke-width="1"/>
        <path id="Path_120" data-name="Path 120" d="M2505.551,1348.039c-.28-15.671-2.9-29.871-7.706-42.234a87.616,87.616,0,0,0-20.75-31.565,95.169,95.169,0,0,0-32.744-20.294,136.589,136.589,0,0,0-40.3-8.132,218.586,218.586,0,0,0-45.4,2.456,335.906,335.906,0,0,0-48.789,11.467,472.431,472.431,0,0,0-50.807,19.228c-17.035,7.541-34.429,16.3-51.729,26.042s-34.7,20.557-51.779,32.185q-13.433,9.147-26.728,19.047h1.108c114.377-84.222,240-129.393,313.553-101.469,42.328,16.072,62.719,52.6,61.638,101.469h.364Q2505.617,1352.073,2505.551,1348.039Z" transform="translate(-261.101 -329.452)" fill="#fff"/>
        <path id="Path_121" data-name="Path 121" d="M2402,1395.167c-14.252-7.221-32.313-9.653-53.577-7.431a196.967,196.967,0,0,0-31.886,6.242,287.059,287.059,0,0,0-33.9,11.883c-1.161.485-2.327.987-3.493,1.491h2.145c47.8-20.218,91.425-25.79,119.838-11.359a58.023,58.023,0,0,1,15.538,11.359h1.695A57.688,57.688,0,0,0,2402,1395.167Z" transform="translate(-315.429 -380.568)" fill="#fff"/>
        <path id="Path_122" data-name="Path 122" d="M2451.744,1326.239a79.432,79.432,0,0,0-27.191-18.62,111.687,111.687,0,0,0-34.146-8.057,179.444,179.444,0,0,0-39,1.281,279.423,279.423,0,0,0-42.338,9.337,398.707,398.707,0,0,0-44.429,16.356c-14.958,6.491-30.258,14.082-45.5,22.566-14.4,8.012-28.9,16.914-43.174,26.477h.781c28.994-19.368,58.542-35.74,87.633-48.355,64.1-27.8,120.792-35.174,159.3-18.78,27.866,11.865,44.516,34.821,48.172,67.135h1.07a100.551,100.551,0,0,0-4.573-21.184A76.657,76.657,0,0,0,2451.744,1326.239Z" transform="translate(-278.14 -348.793)" fill="#fff"/>
        <path id="Path_123" data-name="Path 123" d="M2409.989,1354.394c-16.819-7.858-37.909-10.228-62.545-7.3a234.255,234.255,0,0,0-36.741,7.624,337.594,337.594,0,0,0-38.821,13.933,442.758,442.758,0,0,0-39.963,19.548c-2.551,1.4-5.1,2.851-7.661,4.319h.939a448.589,448.589,0,0,1,46.418-23.164c55.975-23.83,104.913-29.4,137.5-14.129,16.956,7.943,28.412,20.764,34.544,37.293h1.154C2438.611,1375,2426.822,1362.26,2409.989,1354.394Z" transform="translate(-295.592 -365.729)" fill="#fff"/>
        <path id="Path_124" data-name="Path 124" d="M2055.851,512.352c-57.209,38.971-113.456,79.492-167.679,120.7-26.962,20.491-53.919,41.536-80.186,62.587-26.352,21.119-52.716,42.813-78.417,64.523-25.907,21.878-51.845,44.369-77.154,66.892-25.625,22.8-51.31,46.27-76.408,69.8-24.249,22.74-48.409,45.993-71.861,69.173-23.2,22.925-46.336,46.4-68.817,69.82q-1.744,1.819-3.49,3.649h1.526q70.707-74.961,142.783-142.531,9.469-8.882,18.931-17.635C1784.493,704.025,2020.2,528.3,2282.12,374.684V369.09q-22.808,13.388-45.271,26.974C2175.117,433.416,2114.394,472.473,2055.851,512.352Z" transform="translate(-24 -33.129)" fill="#fff"/>
        <path id="Path_125" data-name="Path 125" d="M2088.1,689.034c-47.555,31.08-94.573,63.869-140.089,97.618s-90.442,69.144-133.843,105.4c-44.146,36.879-87.713,75.486-129.814,115.028-33.172,31.153-65.637,63.13-96.951,95.493h.984q47.242-49.415,96.14-95.353,7.99-7.5,15.974-14.892c179.8-166.415,403.181-324.3,637.839-444.624v-4.1c-34.264,17.5-68.3,35.857-101.8,54.867C2186.336,626.961,2136.5,657.4,2088.1,689.034Z" transform="translate(-65.435 -75.786)" fill="#fff"/>
        <path id="Path_126" data-name="Path 126" d="M2103.574,772.666c-43.079,27.595-85.782,56.909-127.2,87.259-41.5,30.406-82.484,62.427-122.105,95.356-40.333,33.518-80.12,68.7-118.527,104.8-25.439,23.909-50.369,48.37-74.579,73.125h.371q36.338-37.2,74.4-72.97,7.285-6.848,14.572-13.591C1925.744,884.447,2143.625,735.335,2365,631.77v-3.414c-42.817,19.9-85.682,41.666-127.791,64.818C2192.183,717.93,2147.309,744.651,2103.574,772.666Z" transform="translate(-92.091 -106.417)" fill="#fff" opacity="0"/>
        <path id="Path_127" data-name="Path 127" d="M2072.162,602.1c-52.272,34.873-103.818,71.4-153.61,108.776-49.724,37.321-98.724,76.261-146.045,116.008-23.885,20.062-47.8,40.716-71.128,61.427-23.621,20.97-47.288,42.577-70.4,64.261-22.323,20.951-44.545,42.39-66.089,63.767-18.208,18.065-36.35,36.5-54.087,54.962h.387q58.448-60.9,119.946-118.6,8.719-8.182,17.43-16.246C1833.135,765.63,2062.51,598.855,2310.66,461.9v-4.835q-37.5,20.668-74.24,42.2C2180.636,531.955,2125.511,566.5,2072.162,602.1Z" transform="translate(-43.204 -54.719)" fill="#fff"/>
        <path id="Path_128" data-name="Path 128" d="M2241.953,948.454c-31.842,15.983-63.926,33.768-95.489,52.885-31.295,18.954-62.535,39.489-92.993,61.1-30.649,21.742-61.013,44.928-90.4,69.007-29.979,24.564-59.519,50.529-87.947,77.3q-6.679,6.29-13.272,12.657h.453q6.493-6.266,13.06-12.457,5.447-5.128,10.914-10.188c108.76-100.664,231.476-187.54,355.472-249.757,66.759-33.5,132.851-59.324,195.776-76.007v-.584a919.369,919.369,0,0,0-97.978,32.381C2307.362,917.388,2274.561,932.088,2241.953,948.454Z" transform="translate(-164.619 -194.617)" fill="#fff" stroke="#fff" stroke-width="1"/>
        <path id="Path_129" data-name="Path 129" d="M2330.309,987.443c-28.208,10.507-57.086,22.98-85.906,37.045-28.212,13.768-56.73,29.237-84.859,45.989-27.943,16.639-55.893,34.778-83.184,53.954-27.5,19.319-54.762,40-81.163,61.542-25.076,20.463-49.794,42.062-73.674,64.342h.469q2.065-1.926,4.135-3.845C2088.1,1096.553,2293.478,981,2459.09,953.685V952.41c-14.021,2.241-28.337,5.108-42.851,8.575A740.161,740.161,0,0,0,2330.309,987.443Z" transform="translate(-186.185 -223.529)" fill="#fff"/>
        <path id="Path_130" data-name="Path 130" d="M2239.922,868.146c-35.844,18.528-71.84,38.945-107.147,60.713-34.938,21.539-69.737,44.731-103.613,69.009-34.039,24.4-67.73,50.307-100.328,77.135-33.23,27.348-65.984,56.192-97.538,85.89q-16.59,15.615-32.763,31.6h.416q16.059-15.871,32.573-31.415,5.983-5.63,11.973-11.172c167.245-154.793,376.385-286.827,571.148-355.3v-2.2c-21.239,7.361-42.651,15.489-64.066,24.3C2313.917,831.806,2276.732,849.117,2239.922,868.146Z" transform="translate(-141.737 -165.706)" fill="#fff"/>
      </g>
      <g id="Group_7249" data-name="Group 7249" transform="translate(-368.781 3736.514) rotate(-16)" opacity="0.7">
        <path id="Path_131" data-name="Path 131" d="M101.292,24.783q-3.9,1.612-7.806,3.135v.8q4.881-1.9,9.746-3.933Z" transform="translate(0)" fill="#fff" stroke="#fff" stroke-width="1"/>
        <path id="Path_132" data-name="Path 132" d="M133.85,24.783h-1.665q-7.372,3.633-14.989,7.045-2.51,1.118-5.013,2.207-9.333,4.043-18.7,7.608v.8q12.056-4.616,24.029-9.963Q125.814,28.771,133.85,24.783Z" transform="translate(0)" fill="#fff" stroke="#fff" stroke-width="1"/>
        <path id="Path_133" data-name="Path 133" d="M409.669,256.455c50.337-26.872,99.77-55.629,147.148-85.647,47.209-29.909,93.173-61.574,136.779-94.3q33.713-25.3,65.919-51.728h-.872c-146.708,120.383-321.3,225.827-507.5,308.495q-10.578,4.7-21.118,9.262c-44.646,19.342-90.269,37.384-136.542,54.038v.963c52.906-19.36,105.866-40.786,157.858-63.872C305.261,309.731,358.435,283.8,409.669,256.455Z" transform="translate(0)" fill="#fff" stroke="#fff" stroke-width="1"/>
        <path id="Path_134" data-name="Path 134" d="M376.466,224.809c45.2-24.308,89.477-50.333,131.781-77.5,42.093-27.028,82.912-55.619,121.45-85.123q24.009-18.38,47.048-37.406h-4.618C545.561,129.423,393.706,223.1,233.769,294.17q-9.631,4.278-19.254,8.449-59.9,25.95-121.029,48.2v.536c47.089-17.162,94.225-36.2,140.494-56.765C282.564,273,330.428,249.566,376.466,224.809Z" transform="translate(0)" fill="#fff" stroke="#fff" stroke-width="1"/>
        <path id="Path_135" data-name="Path 135" d="M345.588,195.377c40.446-21.9,79.979-45.36,117.639-69.844C500.646,101.2,536.8,75.49,570.78,48.983q15.321-11.951,30.152-24.2h-.964C490.652,115,359.191,194.772,217.587,257.75q-8.555,3.806-17.083,7.5c-35.17,15.238-70.929,29.344-107.018,42.275v.862c41.674-15.143,83.382-31.974,124.325-50.184C261.431,238.8,304.359,217.7,345.588,195.377Z" transform="translate(0)" fill="#fff" stroke="#fff" stroke-width="1"/>
        <path id="Path_136" data-name="Path 136" d="M445.1,290.228C500.961,260.647,555.956,229,608.837,195.975c52.777-32.965,104.382-67.89,153.587-104.035Q806.933,59.247,849.4,24.783h-.826c-169.045,137.18-368.083,256.655-578.91,350.168q-11.7,5.191-23.347,10.237c-49.826,21.587-100.89,41.82-152.833,60.586V446.8c59.107-21.736,118.272-45.719,176.363-71.486C329.453,348.875,388.3,320.311,445.1,290.228Z" transform="translate(0)" fill="#fff" stroke="#fff" stroke-width="1"/>
        <path id="Path_137" data-name="Path 137" d="M522,363.52c67.954-35.377,135.232-73.165,200.387-112.611,65.253-39.505,129.639-81.442,191.7-124.971,46.382-32.531,92.065-66.378,136.471-101.155h-8.877c-225.959,177.21-480.1,328.932-731.928,440.4q-14.118,6.246-28.172,12.337-91.37,39.587-188.1,74.9v1.189c72.534-27.007,145.13-56.565,216.429-88.124C381.84,433.647,453.028,399.429,522,363.52Z" transform="translate(0)" fill="#fff" stroke="#fff" stroke-width="1"/>
        <path id="Path_138" data-name="Path 138" d="M219.106,676.781c44.639-18.229,89.7-37.377,134.028-56.956,42.834-18.916,85.814-38.626,127.845-58.624,41.574-19.779,83.347-40.382,124.248-61.283,40.63-20.761,81.492-42.375,121.531-64.292,39.955-21.871,80.154-44.627,119.555-67.689,79.3-46.412,158.3-95.77,235.353-147.171v-7.478c-240.9,163.2-489.444,300.653-728.657,406.3-11.153,4.923-22.253,9.78-33.379,14.6q-109,47.223-226.145,90.571v1.394C135.426,710.3,177.616,693.726,219.106,676.781Z" transform="translate(0 -57.076)" fill="#fff" stroke="#fff" stroke-width="1"/>
        <path id="Path_139" data-name="Path 139" d="M482.62,325.984c61.736-32.427,122.687-67.083,181.5-103.265,58.8-36.172,116.544-74.528,171.9-114.282,37.633-27.026,74.577-55,110.44-83.654h-.775C751.566,179.841,526.147,314.035,289.242,419.008q-12.878,5.7-25.7,11.261-82.892,35.914-170.053,67.549v1.1c65.663-24.288,131.384-50.983,195.924-79.58C355.029,390.263,419.895,358.928,482.62,325.984Z" transform="translate(0)" fill="#fff" stroke="#fff" stroke-width="1"/>
        <path id="Path_140" data-name="Path 140" d="M317.071,168.2c36.078-19.659,71.269-40.73,104.7-62.717,33.18-21.819,65.124-44.867,95.024-68.6q7.57-6.009,14.99-12.1h-3.4c-93,76.435-205.271,145.658-325.769,199.293q-7.734,3.442-15.461,6.79Q140.718,250.987,93.486,268.1v.584c36.665-13.3,73.356-28.1,109.375-44.132C241.891,207.183,280.266,188.248,317.071,168.2Z" transform="translate(0)" fill="#fff" stroke="#fff" stroke-width="1"/>
        <path id="Path_141" data-name="Path 141" d="M197.687,24.783h-1.375a581.674,581.674,0,0,1-66.673,35.051q-18.007,8.045-36.153,14.757v.8q18.3-6.832,36.461-14.934A581.262,581.262,0,0,0,197.687,24.783Z" transform="translate(0)" fill="#fff" stroke="#fff" stroke-width="1"/>
        <path id="Path_142" data-name="Path 142" d="M264.711,29.5q3.407-2.34,6.768-4.713h-1.859A734.773,734.773,0,0,1,145.353,95.2q-25.761,11.5-51.867,21.069v.719q26.2-9.615,52.16-21.195A751.106,751.106,0,0,0,264.711,29.5Z" transform="translate(0)" fill="#fff" stroke="#fff" stroke-width="1"/>
        <path id="Path_143" data-name="Path 143" d="M232.971,24.783h-1.708a646,646,0,0,1-94.213,51.731c-2.47,1.1-4.929,2.183-7.4,3.252q-18.02,7.807-36.167,14.469v.785q22.026-8.146,43.865-17.895A657.958,657.958,0,0,0,232.971,24.783Z" transform="translate(0)" fill="#fff" stroke="#fff" stroke-width="1"/>
        <path id="Path_144" data-name="Path 144" d="M164.941,24.783h-1.5C150.5,31.993,137,38.759,123.045,44.994q-14.7,6.572-29.559,12.176v.766q14.994-5.662,29.872-12.3Q144.917,36,164.941,24.783Z" transform="translate(0)" fill="#fff" stroke="#fff" stroke-width="1"/>
        <path id="Path_145" data-name="Path 145" d="M245.373,99.859c25.2-13.95,49.654-28.92,72.728-44.537,14.585-9.87,28.739-20.087,42.326-30.54h-2.265c-55.939,43.179-121.816,82.6-193.241,114.452-23.608,10.529-47.487,20.114-71.436,28.732v.8c24.047-8.745,48.089-18.452,71.709-28.983C192.667,127.536,219.62,114.115,245.373,99.859Z" transform="translate(0)" fill="#fff" stroke="#fff" stroke-width="1"/>
        <path id="Path_146" data-name="Path 146" d="M267.03,120.5c28.476-15.684,56.146-32.508,82.308-50.065,21.8-14.63,42.814-29.938,62.653-45.654h-2.568c-66.89,53.149-146.669,101.583-233.1,140.1q-6.068,2.708-12.12,5.328-35.063,15.192-70.716,27.974v.782c27.864-10.11,55.731-21.354,83.1-33.552C207.55,151.617,237.952,136.522,267.03,120.5Z" transform="translate(0)" fill="#fff" stroke="#fff" stroke-width="1"/>
        <path id="Path_147" data-name="Path 147" d="M290.9,143.256C323,125.668,354.238,106.809,383.848,87.13c29.348-19.5,57.516-40.092,83.777-61.27.443-.358.883-.717,1.326-1.076h-1.044C387.957,89.453,292.334,147.057,188.874,193.14q-6.9,3.071-13.79,6.057-40.486,17.542-81.6,32.419v.627c32.065-11.623,64.142-24.568,95.64-38.6C223.94,178.138,258.144,161.206,290.9,143.256Z" transform="translate(0)" fill="#fff" stroke="#fff" stroke-width="1"/>
        <path id="Path_148" data-name="Path 148" d="M289.962,41.711q12.156-8.292,23.8-16.928h-1.167C265.959,59.272,212.316,90.307,154.62,116.05q-30.346,13.541-61.134,24.761v.688c20.6-7.519,41.184-15.844,61.417-24.875A865.912,865.912,0,0,0,289.962,41.711Z" transform="translate(0)" fill="#fff" stroke="#fff" stroke-width="1"/>
        <path id="Path_149" data-name="Path 149" d="M331.215,538.986c39.44-17.44,79-35.639,117.652-54.133,38.223-18.285,76.593-37.349,114.115-56.707,74.467-38.413,148.412-79.414,220.292-122.214C855.4,262.987,926.9,217.358,996.229,169.919q43.01-29.433,85.438-60.179v-.51C849.081,277.668,593.723,422.591,331.075,538.717q-15.4,6.81-30.738,13.456-100.1,43.366-206.851,82.588v1.287c38.149-14.308,76.522-29.3,114.272-44.66C248.883,574.655,290.389,557.036,331.215,538.986Z" transform="translate(0 -25.569)" fill="#fff" stroke="#fff" stroke-width="1"/>
      </g>
    </g>
  </g>
</svg>
