<svg xmlns="http://www.w3.org/2000/svg" width="189.644" height="246.66" viewBox="0 0 189.644 246.66">
  <path id="Subtraction_2" data-name="Subtraction 2" d="M189.058,248.836l0,0-4.29-4.494c-8.688-9.335-17.286-18.882-25.556-28.375a86.4,86.4,0,0,0,6.861-11.652,125.685,125.685,0,0,0,5.948-13.979,107.056,107.056,0,0,0,4.016-14.708c.43-2.305.74-4.408.947-6.43.433,1.074.92,2.134,1.448,3.151a34.663,34.663,0,0,0,7.109,9.145,15.685,15.685,0,0,1,4.695,8.267c1.281,6.424.807,13.379.11,21.15-.2,2.24-.431,4.526-.653,6.736-.5,4.949-1.01,10.063-1.263,15.161a76.229,76.229,0,0,0,.63,16.028Zm-5.537-.453a101.624,101.624,0,0,0-15.71-4.189c-3.377-.681-6.812-1.284-10.134-1.867-5.2-.912-10.571-1.855-15.753-3.107a50.784,50.784,0,0,1-12.107-4.44l-.627-.43a107.02,107.02,0,0,0,13.531.665c7.236,0,16.32-.349,27-1.036,4.118,4.421,8.272,8.782,12.347,12.961l1.453,1.443Zm-42.366-16.66h0c-8.845,0-14.288-.438-15.328-1.233a1.6,1.6,0,0,0-1.388-.787h-.007l-.081-.131c-.856-1.4-1.74-2.838-2.585-4.462a30.531,30.531,0,0,0-8.384-9.215c1.77.622,3.648,1.175,5.741,1.689a84.95,84.95,0,0,0,13,1.962c2.424.136,4.605.2,6.669.2,2.281,0,4.385-.079,6.434-.243a67.9,67.9,0,0,0,10.063-1.413c3.845,4.336,7.737,8.641,11.57,12.8C157.625,231.427,148.5,231.723,141.155,231.723Zm12.9-15.021h0c-6.378-.889-12.765-1.365-18.943-1.825l-2.651-.2-12.763-.859-.843-.065c-3.228-.249-6.563-.506-9.936-.7a45.259,45.259,0,0,0-8.359-3.5,22.922,22.922,0,0,1-15.405-19.3c-.113-.884-.159-1.791-.193-2.639a27.09,27.09,0,0,0,10.889,4.891,41.187,41.187,0,0,0,9.238.955c.981,0,2.015-.027,3.075-.08a55.649,55.649,0,0,0,12.048-2.073,47.516,47.516,0,0,0,9.215-3.558c8.35,10.162,16.636,19.9,24.629,28.95Zm4.662-1.3h0c-3.893-4.474-7.787-9.022-11.573-13.515a100.266,100.266,0,0,0,7.975-13.516,139.9,139.9,0,0,0,6.978-16.614,121.731,121.731,0,0,0,4.528-17.5,78.58,78.58,0,0,0,1.21-14.7,21.131,21.131,0,0,1,3.672,5.021,20.75,20.75,0,0,1,2.051,5.929,31.008,31.008,0,0,1,.492,4.894l.012.243a45.6,45.6,0,0,0,.674,5.712c.225,1.261.51,2.517.849,3.734l-3.217,9.551-4.93,14.065c-.455,1.316-.92,2.653-1.371,3.946l-.013.036c-2.555,7.339-5.2,14.929-7.337,22.712Zm-12.113-14.156h0c-9.288-11.038-18.416-22.329-27.132-33.56-.779-.98-1.424-1.8-2.031-2.565a68.478,68.478,0,0,0,8.179-9.778,85,85,0,0,0,7.41-12.655,63.623,63.623,0,0,0,4.834-13.981,40.282,40.282,0,0,0,.939-9.057,34.767,34.767,0,0,0,3.8,4.686,35.576,35.576,0,0,0,9.327,6.945,36.183,36.183,0,0,0,5.312,2.293c.352.123.688.237.985.339a27.664,27.664,0,0,1,3.82,1.515A20.512,20.512,0,0,1,167,138.757l-.37,1.373c-1.228,4.564-2.387,8.876-3.692,13.255q-.435,1.386-.867,2.77l0,.005c-1.441,4.608-2.93,9.374-4.562,14.014-1.738,5.142-3.6,10.345-5.4,15.377-1.826,5.112-3.715,10.4-5.506,15.7ZM99.25,188.77c-1,0-1.978-.015-2.906-.043a82.56,82.56,0,0,1-11.388-1.308q-.008-.2-.015-.4v0c-.041-1.1-.084-2.247-.23-3.371a35.9,35.9,0,0,0-1.291-6.548,33.3,33.3,0,0,0-6.169-11.741,32.039,32.039,0,0,0-2.325-2.507,27.61,27.61,0,0,0,8.613,4.881,42.754,42.754,0,0,0,11.114,2.214c.985.053,1.973.08,2.938.08a48.576,48.576,0,0,0,8.274-.692,42.342,42.342,0,0,0,7.312-1.842c.727.943,1.542,2,2.493,3.225,4.377,5.512,8.738,10.917,12.961,16.068-3.032.222-6.043.5-8.954.775-4.053.379-7.879.736-11.8.954C105.314,188.637,102.283,188.77,99.25,188.77Zm12.605-23h0c-2.264-.1-4.519-.18-6.7-.253-3.506-.118-6.814-.23-10.192-.446-3.295-.23-6.728-.569-10.5-1.038-3.157-.5-6.427-1.171-10.6-2.171a32.614,32.614,0,0,0-6.961-4.714,69.519,69.519,0,0,1-11.239-6.881,86.415,86.415,0,0,1-13.393-12.677l-8.722-11.632c-.43-.653-.863-1.322-1.287-1.987l-3.026-5.144a30.455,30.455,0,0,0,11.975,4.852,46.6,46.6,0,0,0,9.161.812c1.172,0,2.4-.03,3.766-.091A66.369,66.369,0,0,0,66.8,122.275a52.529,52.529,0,0,0,10.292-3.826c10.821,15.461,22.516,31.381,34.761,47.318Zm5.093-1.275h0c-7.913-10.037-15.8-20.4-24.1-31.668a45.892,45.892,0,0,0,11.764-8.728A70.148,70.148,0,0,0,115.1,110.608a78.567,78.567,0,0,0,6.947-15.568,51.58,51.58,0,0,0,1.619-5.926v0c.173-.751.352-1.528.541-2.284.285-1.611.526-3.2.717-4.726a73.5,73.5,0,0,1,8.094,21.521c.073.4.145.805.22,1.238v.005c.231,1.326.493,2.829.879,4.267a32.935,32.935,0,0,0,1.933,5.529c.394.9.843,1.8,1.332,2.677a88.939,88.939,0,0,1-3.156,10.311c-1.406,3.811-3.126,7.8-5.578,12.95-1.876,4.059-3.927,8.139-5.911,12.085-1.925,3.828-3.915,7.787-5.791,11.809Zm-24.56-32.3h0c-3.851-5.236-7.818-10.707-11.791-16.262a94.987,94.987,0,0,0,10.058-10.925A116.571,116.571,0,0,0,100.394,90.9a84.329,84.329,0,0,0,7.316-15.638A47.272,47.272,0,0,0,110.489,62c1.158,1.334,2.287,2.672,3.355,3.977A111.676,111.676,0,0,1,124.19,80.8c-.4.9-.779,1.814-1.149,2.7-.359.858-.73,1.744-1.109,2.608-.537,1.125-1.039,2.279-1.523,3.4-.595,1.37-1.209,2.784-1.887,4.138-.435.865-.853,1.749-1.258,2.6-.744,1.572-1.513,3.2-2.4,4.729-.912,1.9-1.979,3.744-3.012,5.529-.3.523-.615,1.064-.923,1.6a136.241,136.241,0,0,1-9.131,13.454A106.522,106.522,0,0,1,92.388,132.2Zm-49.157-12.3h0c-.545,0-1.091,0-1.623-.01a100.663,100.663,0,0,1-12.383-1.075L26.162,113.6c-1.084-1.991-2.172-4.073-3.233-6.19L16.755,93.961c-1.287-3.076-2.523-6.218-3.673-9.337a57.229,57.229,0,0,0,10.772,3.832,82.484,82.484,0,0,0,11.486,2.18,72.549,72.549,0,0,0,8.037.478c1.271,0,2.527-.042,3.734-.123a27.156,27.156,0,0,0,9.873-2.236c6.242,9.541,12.828,19.274,19.574,28.93-3.566.223-7.1.545-10.42.856-1.4.112-2.823.241-4.2.366-2.663.242-5.415.492-8.114.62C49.991,119.774,46.525,119.895,43.231,119.895Zm36.891-4.625h0c-3.158-4.419-6.4-9-9.641-13.624A89.72,89.72,0,0,0,79.1,90.022a121.247,121.247,0,0,0,7.938-14.58,101.484,101.484,0,0,0,5.618-15.7A61.126,61.126,0,0,0,94.684,45.81a205.067,205.067,0,0,1,14.9,15.156,102.366,102.366,0,0,1-5.369,12.824c-2.256,4.589-4.873,9.375-8,14.63-2.549,4.429-5.268,8.876-7.9,13.176-2.714,4.437-5.519,9.024-8.189,13.672ZM70,100.964h0c-3.24-4.625-6.64-9.524-10.105-14.559-4.423-6.465-8.733-12.854-12.81-18.992a65.29,65.29,0,0,0,7.244-8.988,88.623,88.623,0,0,0,6.577-11.377,62.888,62.888,0,0,0,4.5-12.482,27.244,27.244,0,0,0,.746-11.16c5.562,3.663,11.233,7.816,16.854,12.342,3.818,3.092,7.508,6.26,10.969,9.417-1.508,4.434-3.116,8.812-4.916,13.386-2.2,5.345-4.306,10.208-6.433,14.868-1.7,3.787-3.494,7.616-5.225,11.318l0,0c-2.462,5.266-5.008,10.711-7.4,16.222ZM56.433,87.9h-.12a64.88,64.88,0,0,1-7.027-.5c-.684-.074-1.39-.151-2.088-.22L35.9,85.785c-3.351-.391-7.33-.824-11.431-1.076-2.181-.152-5.067-.326-8.05-.326-1.189,0-2.3.026-3.392.079-1.842-5.008-3.522-10.124-5-15.207-.214-.749-.426-1.5-.628-2.234a21.373,21.373,0,0,0,7.517,3.954,36.881,36.881,0,0,0,10.1,1.736c.778.036,1.562.055,2.332.055a46.769,46.769,0,0,0,7.775-.641,36.81,36.81,0,0,0,9.544-2.7c3.662,5.834,7.51,11.877,11.765,18.475ZM44.573,69.277h0a142.243,142.243,0,0,0-14.787-1.215c-1.489-.069-3.028-.141-4.544-.228-2.954-.136-6.3-.29-9.549-.59a69.008,69.008,0,0,1-8.586-1.3A156.854,156.854,0,0,1,1.657,35.467a97.423,97.423,0,0,1,.206-16.9A65.16,65.16,0,0,1,3.279,10.3,52.173,52.173,0,0,1,5.866,2.355l.118-.01.057-.005c7.4,14.562,15.582,28.767,24.011,43.249,4.523,7.579,9.272,15.328,14.52,23.688Zm2.06-2.549h0c-3.923-5.911-7.786-11.821-11.48-17.566,2.377-1.394,4.44-3.794,6.307-7.336a41.486,41.486,0,0,0,3.725-10.151A57.358,57.358,0,0,0,46.635,21.1a44.7,44.7,0,0,0-.4-9.052l.48.229A172.341,172.341,0,0,1,65.328,22.864,56.716,56.716,0,0,1,61.8,33.395c-1.8,4.139-3.441,7.864-5.27,11.545-.8,1.7-1.617,3.419-2.41,5.081-2.563,5.37-5.212,10.921-7.486,16.706ZM34.758,48.547h0c-.981-1.53-1.862-2.907-2.692-4.21-8.627-13.322-17.114-27.061-25.946-42,1.251-.1,2.548-.157,3.855-.157a69.527,69.527,0,0,1,16.646,2.3c1.068.355,2.161.687,3.219,1.009a60.949,60.949,0,0,1,6.989,2.442l5.007,2.015,3.643,1.744c-1.095,3.151-1.916,6.245-2.575,8.857-.8,3-1.509,6.033-2.2,8.965l-.243,1.034c-.7,3.044-1.519,6.254-2.5,9.814a37.322,37.322,0,0,1-3.2,8.189Z" transform="translate(-1.391 -2.175)" fill="#2f67a7" opacity="0.5"/>
</svg>
