<svg xmlns="http://www.w3.org/2000/svg" width="407.931" height="142.776" viewBox="0 0 407.931 142.776">
  <g id="Group_53091" data-name="Group 53091" transform="translate(-3965 -7163.425)" opacity="0.25">
    <path id="Path_124072" data-name="Path 124072" d="M138.381,144.909,150.687,63.1a3.453,3.453,0,0,1,2.453-2.8l24.6-7.131a2.3,2.3,0,0,1,2.918,2.553l-12.309,82.058c-.476,3.964,1.11,5.549,4.915,5.549a22.462,22.462,0,0,0,3.725-.34,2.473,2.473,0,0,1,2.872,2.794l-2.54,16.85A4.09,4.09,0,0,1,174.185,166a53.063,53.063,0,0,1-12.815,1.577C144.247,167.58,136.162,159.653,138.381,144.909Zm150.526,0L301.213,63.1a3.454,3.454,0,0,1,2.453-2.8l24.6-7.131a2.3,2.3,0,0,1,2.918,2.553l-12.309,82.058c-.475,3.964,1.11,5.549,4.915,5.549a22.466,22.466,0,0,0,3.725-.339,2.473,2.473,0,0,1,2.872,2.794l-2.539,16.85A4.09,4.09,0,0,1,324.711,166,53.06,53.06,0,0,1,311.9,167.58C294.773,167.58,286.688,159.653,288.907,144.909Zm-6.271.827-2.459,17.1a3.755,3.755,0,0,1-2.89,3.123,56.363,56.363,0,0,1-13.012,1.627c-11.1,0-18.074-3.647-20.927-9.829-6.659,5.865-16.647,9.829-27.587,9.829-20.61,0-32.025-13.793-29.012-34.087l6.664-45.136a2.47,2.47,0,0,1,2.444-2.109h23.86a2.47,2.47,0,0,1,2.444,2.831L216.4,128.1c-1.427,9.2,2.537,14.9,11.1,14.9,8.72,0,14.9-5.391,16.171-14.428l6.026-40.226a2.47,2.47,0,0,1,2.443-2.1H276a2.47,2.47,0,0,1,2.444,2.831l-7.192,48.695c-.635,3.805.951,5.549,4.914,5.549a18.813,18.813,0,0,0,3.559-.363,2.475,2.475,0,0,1,2.911,2.775Zm150.685,0L430.738,163.7a2.482,2.482,0,0,1-1.9,2.059,58.1,58.1,0,0,1-13.873,1.823c-11.1,0-18.074-3.647-20.927-9.829-6.659,5.865-16.647,9.829-27.587,9.829-20.61,0-32.025-13.793-29.012-34.087L344.1,88.358a2.47,2.47,0,0,1,2.444-2.109H370.4a2.47,2.47,0,0,1,2.444,2.831L367.082,128.1c-1.427,9.2,2.537,14.9,11.1,14.9,8.72,0,14.9-5.391,16.171-14.428l6.026-40.226a2.47,2.47,0,0,1,2.443-2.1h23.866a2.47,2.47,0,0,1,2.444,2.831l-7.192,48.695c-.635,3.805.951,5.549,4.914,5.549a18.809,18.809,0,0,0,3.559-.363,2.475,2.475,0,0,1,2.91,2.775Z" transform="translate(3939.586 7138.621)" fill="#fff"/>
    <path id="Path_124073" data-name="Path 124073" d="M80.394,166.551c-12-30.012-50.087-38.533-57.557-39.933a1.343,1.343,0,0,1-1.083-1.52L32.561,53.385a130.479,130.479,0,0,0-18.173-.6,1.34,1.34,0,0,0-1.249,1.142L.015,141.021a1.339,1.339,0,0,0,1.356,1.542c9.5-.232,58.711-.245,73.018,23.617a2.7,2.7,0,0,0,3.063,1.226Z" transform="translate(3965 7138.69)" fill="#fff"/>
    <path id="Path_124074" data-name="Path 124074" d="M90.556,163.554c-2.98-19.157-25.5-39.5-25.5-39.5-6.724-8.183-1.092-19.548,1.658-24.079a1.338,1.338,0,0,0-1.044-2.029c-4.281-.331-12.936-2.222-12.933-12.112a17.059,17.059,0,0,1,.216-2.526l4.059-27.016h-.005c-4.2-.8-8.388-1.451-12.428-1.966l-.049-.006c-2.418-.308-4.781-.566-7.058-.777h-.006L26.662,125.253a1.343,1.343,0,0,0,1.083,1.52c7.47,1.4,45.557,9.921,57.557,39.933l3.354-.974a2.685,2.685,0,0,0,1.906-2.178l.451-2.991C90.716,162.508,90.556,163.554,90.556,163.554Z" transform="translate(3960.094 7138.534)" fill="#fff"/>
    <path id="Path_124075" data-name="Path 124075" d="M46.974,50.54l.049.006c4.04.515,8.23,1.168,12.429,1.967h.005L62,35.567a89.242,89.242,0,0,0-18.4-2.542,1.337,1.337,0,0,0-1.341,1.143L39.91,49.763h.006C42.194,49.974,44.556,50.232,46.974,50.54Z" transform="translate(3957.652 7142.311)" fill="#fff"/>
    <path id="Path_124076" data-name="Path 124076" d="M108.265,85.761c2.372-15.153-21.59-24.328-45.362-28.849L58.845,83.929a17.056,17.056,0,0,0-.216,2.526c0,9.89,8.652,11.781,12.933,12.112a1.338,1.338,0,0,1,1.044,2.029c-2.749,4.531-8.381,15.9-1.658,24.079,0,0,22.517,20.343,25.5,39.5,0,0,5.74-37.682,12.6-83.59Z" transform="translate(3954.205 7137.913)" fill="#fff"/>
    <path id="Path_124077" data-name="Path 124077" d="M110.586,73.491c6.149-41.153-31.974-53.01-39.942-55.025a1.34,1.34,0,0,0-1.655,1.1l-2,13.31C89.15,38.172,113.847,51.7,110.586,73.491Z" transform="translate(3952.665 7145)" fill="#fff"/>
    <path id="Path_124078" data-name="Path 124078" d="M66.415,36.14,63.869,53.088h0c23.772,4.521,47.734,13.7,45.362,28.849l.781-5.183C113.273,54.964,88.576,41.434,66.415,36.14Z" transform="translate(3953.24 7141.739)" fill="#fff"/>
  </g>
</svg>
