<svg xmlns="http://www.w3.org/2000/svg" width="111.043" height="18.474" viewBox="0 0 111.043 18.474">
  <g id="Group_53115" data-name="Group 53115" transform="translate(-268 -7590)">
    <path id="Polygon_1" data-name="Polygon 1" d="M9.814,0l2.317,7.056h7.5l-6.066,4.361,2.317,7.056L9.814,14.113,3.749,18.474l2.317-7.056L0,7.056H7.5Z" transform="translate(336.976 7590)" fill="#fa0"/>
    <path id="Polygon_2" data-name="Polygon 2" d="M9.814,0l2.317,7.056h7.5l-6.066,4.361,2.317,7.056L9.814,14.113,3.749,18.474l2.317-7.056L0,7.056H7.5Z" transform="translate(359.414 7590)" fill="#fa0"/>
    <path id="Polygon_3" data-name="Polygon 3" d="M9.814,0l2.317,7.056h7.5l-6.066,4.361,2.317,7.056L9.814,14.113,3.749,18.474l2.317-7.056L0,7.056H7.5Z" transform="translate(313.707 7590)" fill="#fa0"/>
    <path id="Polygon_4" data-name="Polygon 4" d="M9.814,0l2.317,7.056h7.5l-6.066,4.361,2.317,7.056L9.814,14.113,3.749,18.474l2.317-7.056L0,7.056H7.5Z" transform="translate(291.269 7590)" fill="#fa0"/>
    <path id="Polygon_5" data-name="Polygon 5" d="M9.814,0l2.317,7.056h7.5l-6.066,4.361,2.317,7.056L9.814,14.113,3.749,18.474l2.317-7.056L0,7.056H7.5Z" transform="translate(268 7590)" fill="#fa0"/>
  </g>
</svg>
