<svg xmlns="http://www.w3.org/2000/svg" width="595.476" height="142.78" viewBox="0 0 595.476 142.78">
  <g id="Walmart-Logo.wine" opacity="0.25">
    <path id="Path_124079" data-name="Path 124079" d="M345.375,57.6c0-14.1-6.036-26.558-26.449-26.558-10.473,0-18.793,2.985-23.3,5.6l3.306,11.312A34.382,34.382,0,0,1,315.963,43.2c10.334-.015,12.027,5.831,12.027,9.59V53.7c-22.559-.036-36.82,7.758-36.82,23.632,0,9.7,7.24,18.793,19.9,18.793,7.721,0,14.246-3.116,18.143-8.035h.38s2.569,10.75,16.779,6.641a93.629,93.629,0,0,1-.992-15.013Zm-16.83,14.888a10.86,10.86,0,0,1-.431,3.335,11.781,11.781,0,0,1-11.356,7.977c-4.707,0-8.4-2.664-8.4-8.247,0-8.539,9.429-10.889,20.187-10.831M0,11.861S14.735,72.145,17.078,81.91c2.758,11.415,7.7,15.633,21.96,12.823l9.21-37.382c2.328-9.262,3.912-15.9,5.415-25.34h.255c1.044,9.532,2.547,16.078,4.452,25.369,0,0,3.759,16.983,5.708,25.88,1.9,8.9,7.239,14.509,21.23,11.473l21.924-82.872h-17.7L82.011,47.71C80.018,58.1,78.208,66.277,76.8,75.794h-.255c-1.27-9.415-2.883-17.26-4.955-27.434l-7.794-36.5H45.33l-8.32,35.565c-2.372,10.86-4.59,19.567-5.985,28.784h-.241C29.346,67.561,27.4,56.548,25.332,46.1c0,0-4.941-25.464-6.685-34.236M156.556,57.6c0-14.1-6.051-26.558-26.464-26.558-10.444,0-18.778,2.985-23.289,5.6l3.306,11.312A34.271,34.271,0,0,1,127.144,43.2c10.334-.015,12.027,5.831,12.027,9.59V53.7c-22.559-.036-36.834,7.758-36.834,23.632,0,9.7,7.269,18.793,19.866,18.793,7.794,0,14.261-3.116,18.158-8.035h.394s2.584,10.75,16.779,6.641a92.935,92.935,0,0,1-.978-15.013ZM139.712,72.493a11.33,11.33,0,0,1-.416,3.335,11.82,11.82,0,0,1-11.386,7.977c-4.678,0-8.386-2.664-8.386-8.247,0-8.539,9.429-10.889,20.187-10.831M182.584,94.7V11.861H165.74V94.7Zm214.49-82.843V72.984c0,8.437,1.583,14.319,4.992,17.925,2.992,3.16,7.889,5.218,13.721,5.218A40.807,40.807,0,0,0,428,94.324l-.2-13.159a26.976,26.976,0,0,1-6.422.744c-5.751,0-7.648-3.642-7.648-11.217v-23.4H428.4V31.464H413.729v-19.6M353.536,32.484V94.731h17.414V62.852a23.507,23.507,0,0,1,.38-4.569c1.3-6.722,6.4-10.977,13.75-10.977a29.13,29.13,0,0,1,4.992.467V31.455a18.438,18.438,0,0,0-3.781-.358c-6.517,0-13.9,4.138-17.02,13.152h-.43V32.484m-176.475,0V94.731h16.968V58.2a14.2,14.2,0,0,1,.8-5.05c1.38-3.7,4.8-7.984,10.3-7.984,6.831,0,10.057,5.766,10.057,14.086V94.731h16.925V57.758a17.41,17.41,0,0,1,.7-5.021A10.616,10.616,0,0,1,258.3,45.161c6.9,0,10.247,5.642,10.247,15.451V94.731h16.91v-36.7c0-19.282-9.809-26.931-20.946-26.931a22.52,22.52,0,0,0-12.3,3.364,26.664,26.664,0,0,0-7.889,7.729h-.255c-2.678-6.7-8.969-11.093-17.188-11.093-10.538,0-15.326,5.321-18.143,9.816h-.256v-8.43" transform="translate(0 18.377)" fill="#fff"/>
    <path id="Path_124080" data-name="Path 124080" d="M242.543,48.067c3.328,0,6.13-1.737,6.495-3.97l3.3-37.367c0-3.7-4.357-6.729-9.794-6.729-5.467,0-9.795,3.029-9.795,6.729L236.077,44.1c.351,2.233,3.138,3.97,6.467,3.97M222.3,59.759c1.649-2.919,1.554-6.16-.226-7.6l-30.8-21.537c-3.2-1.868-8,.358-10.743,5.072s-2.182,9.991.956,11.823l34.1,15.808c2.182.817,5.036-.7,6.715-3.591m40.477,0c1.744,2.89,4.6,4.408,6.721,3.634l34.1-15.852c3.168-1.868,3.642-7.1.964-11.809-2.737-4.715-7.562-6.926-10.758-5.094L263,52.124c-1.708,1.467-1.832,4.722-.182,7.634M242.543,94.743c3.328,0,6.13,1.737,6.5,3.97l3.3,37.367c0,3.7-4.357,6.7-9.794,6.7-5.467,0-9.795-3-9.795-6.7l3.328-37.367c.351-2.233,3.138-3.97,6.467-3.97m20.236-11.66c1.744-2.9,4.6-4.445,6.721-3.605L303.6,95.3c3.168,1.832,3.642,7.108.964,11.823-2.737,4.678-7.562,6.9-10.758,5.072L263,90.651c-1.708-1.452-1.832-4.693-.183-7.568M222.3,83.051c1.649,2.912,1.554,6.145-.226,7.6l-30.8,21.508c-3.2,1.868-8-.365-10.743-5.043-2.737-4.707-2.182-9.991.956-11.823l34.1-15.822c2.182-.832,5.036.7,6.715,3.576m91.274,25.866H314c.576,0,.81.183.876.642a3.171,3.171,0,0,0,.314,1h1.095A1.992,1.992,0,0,1,316,109.53a1.165,1.165,0,0,0-.81-.978v-.1a1,1,0,0,0,.876-.956,1.261,1.261,0,0,0-.379-.905,2.972,2.972,0,0,0-1.489-.314,6.909,6.909,0,0,0-1.591.153v4.131h.97Zm.029-1.883.5-.066c.584,0,.9.27.9.65,0,.423-.423.62-.963.62h-.431Zm.62-2.8a4.19,4.19,0,1,0,4.262,4.16,4.172,4.172,0,0,0-4.262-4.16m0,.84a3.338,3.338,0,0,1,0,6.67,3.337,3.337,0,0,1-.029-6.67" transform="translate(276.988)" fill="#fff"/>
  </g>
</svg>
